<svg width="14" height="10" viewBox="0 0 14 10" fill="none" xmlns="http://www.w3.org/2000/svg">
<path fill-rule="evenodd" clip-rule="evenodd" d="M11.6749 0.0343096C11.5841 0.0545158 11.424 0.113929 11.3192 0.166396C11.1344 0.258831 11.0434 0.349379 8.34623 3.12569C6.81593 4.70085 5.52728 6.00851 5.48256 6.03163C5.38834 6.08027 5.27969 6.08533 5.17803 6.04581C5.13869 6.0305 4.6091 5.50802 4.00118 4.88473C2.96776 3.82518 2.88345 3.74516 2.70528 3.6548C2.45677 3.52874 2.25919 3.47905 2.00651 3.47905C1.13811 3.47905 0.445318 4.23402 0.503404 5.11703C0.520454 5.37596 0.591601 5.61747 0.713009 5.82839C0.783902 5.95156 1.23353 6.42975 2.62577 7.86273C4.37297 9.66105 4.45347 9.73989 4.63642 9.83146C5.09369 10.0603 5.53551 10.0562 6.00854 9.81861C6.15155 9.74681 6.28239 9.65056 6.3958 9.53373L9.6497 6.18182C11.5335 4.24125 13.1192 2.59454 13.1733 2.52247C13.5345 2.04156 13.6004 1.43066 13.35 0.884566C13.0545 0.240119 12.3523 -0.116306 11.6749 0.0343096Z" fill="#3743D4"/>
</svg>
