<svg width="976" height="378" viewBox="0 0 976 378" fill="none" xmlns="http://www.w3.org/2000/svg">
<path d="M105.734 74.4001H125.395L140.641 96.6904L155.887 74.4001H175.864L151.366 109.623L177.862 148H157.779L140.641 123.607L123.713 148H104.051L130.337 110.359L105.734 74.4001ZM218.773 148V136.96L217.721 134.542V114.775C217.721 111.27 216.635 108.536 214.462 106.574C212.359 104.611 209.1 103.63 204.684 103.63C201.67 103.63 198.691 104.12 195.747 105.102C192.873 106.013 190.419 107.275 188.387 108.887L182.499 97.4264C185.583 95.2534 189.298 93.5711 193.644 92.3795C197.99 91.1879 202.406 90.5921 206.892 90.5921C215.513 90.5921 222.207 92.6248 226.974 96.6904C231.74 100.756 234.124 107.099 234.124 115.721V148H218.773ZM201.529 148.841C197.113 148.841 193.328 148.105 190.174 146.633C187.02 145.091 184.601 143.023 182.919 140.43C181.237 137.836 180.396 134.927 180.396 131.703C180.396 128.338 181.202 125.394 182.814 122.871C184.496 120.347 187.125 118.385 190.7 116.983C194.275 115.511 198.936 114.775 204.684 114.775H219.719V124.343H206.471C202.616 124.343 199.952 124.974 198.48 126.235C197.078 127.497 196.377 129.074 196.377 130.967C196.377 133.07 197.183 134.752 198.796 136.014C200.478 137.205 202.756 137.801 205.63 137.801C208.364 137.801 210.817 137.17 212.99 135.909C215.163 134.577 216.74 132.649 217.721 130.126L220.245 137.696C219.053 141.341 216.88 144.11 213.726 146.002C210.572 147.895 206.506 148.841 201.529 148.841ZM288.431 148L269.506 121.189L282.859 113.303L307.778 148H288.431ZM248.372 148V91.4332H264.774V148H248.372ZM259.938 126.551V113.408H279.705V126.551H259.938ZM284.436 121.609L269.085 119.927L288.957 91.4332H306.411L284.436 121.609ZM348.661 148V136.96L347.61 134.542V114.775C347.61 111.27 346.523 108.536 344.35 106.574C342.247 104.611 338.988 103.63 334.572 103.63C331.558 103.63 328.579 104.12 325.635 105.102C322.761 106.013 320.307 107.275 318.275 108.887L312.387 97.4264C315.471 95.2534 319.186 93.5711 323.532 92.3795C327.878 91.1879 332.294 90.5921 336.78 90.5921C345.402 90.5921 352.096 92.6248 356.862 96.6904C361.629 100.756 364.012 107.099 364.012 115.721V148H348.661ZM331.418 148.841C327.002 148.841 323.216 148.105 320.062 146.633C316.908 145.091 314.49 143.023 312.807 140.43C311.125 137.836 310.284 134.927 310.284 131.703C310.284 128.338 311.09 125.394 312.702 122.871C314.384 120.347 317.013 118.385 320.588 116.983C324.163 115.511 328.824 114.775 334.572 114.775H349.607V124.343H336.359C332.504 124.343 329.84 124.974 328.368 126.235C326.967 127.497 326.266 129.074 326.266 130.967C326.266 133.07 327.072 134.752 328.684 136.014C330.366 137.205 332.644 137.801 335.518 137.801C338.252 137.801 340.705 137.17 342.878 135.909C345.051 134.577 346.628 132.649 347.61 130.126L350.133 137.696C348.941 141.341 346.768 144.11 343.614 146.002C340.46 147.895 336.394 148.841 331.418 148.841ZM390.352 148V101.106L394.032 104.891H371.216V91.4332H425.785V104.891H402.969L406.649 101.106V148H390.352ZM458.662 148.841C452.634 148.841 447.272 147.579 442.576 145.056C437.949 142.533 434.269 139.098 431.536 134.752C428.872 130.336 427.54 125.324 427.54 119.717C427.54 114.039 428.872 109.027 431.536 104.681C434.269 100.265 437.949 96.8306 442.576 94.3772C447.272 91.8538 452.634 90.5921 458.662 90.5921C464.621 90.5921 469.948 91.8538 474.644 94.3772C479.34 96.8306 483.02 100.23 485.684 104.576C488.348 108.922 489.68 113.969 489.68 119.717C489.68 125.324 488.348 130.336 485.684 134.752C483.02 139.098 479.34 142.533 474.644 145.056C469.948 147.579 464.621 148.841 458.662 148.841ZM458.662 135.383C461.396 135.383 463.849 134.752 466.022 133.49C468.195 132.229 469.913 130.441 471.174 128.128C472.436 125.745 473.067 122.941 473.067 119.717C473.067 116.422 472.436 113.618 471.174 111.305C469.913 108.992 468.195 107.205 466.022 105.943C463.849 104.681 461.396 104.05 458.662 104.05C455.929 104.05 453.475 104.681 451.302 105.943C449.129 107.205 447.377 108.992 446.045 111.305C444.784 113.618 444.153 116.422 444.153 119.717C444.153 122.941 444.784 125.745 446.045 128.128C447.377 130.441 449.129 132.229 451.302 133.49C453.475 134.752 455.929 135.383 458.662 135.383ZM500.961 148V91.4332H517.258V113.513H541.861V91.4332H558.264V148H541.861V126.866H517.258V148H500.961ZM604.583 148V74.4001H636.441C643.03 74.4001 648.708 75.4866 653.475 77.6595C658.241 79.7624 661.921 82.8115 664.515 86.807C667.108 90.8024 668.405 95.5688 668.405 101.106C668.405 106.574 667.108 111.305 664.515 115.301C661.921 119.296 658.241 122.38 653.475 124.553C648.708 126.656 643.03 127.707 636.441 127.707H614.046L621.616 120.032V148H604.583ZM621.616 121.925L614.046 113.829H635.495C640.752 113.829 644.678 112.707 647.271 110.464C649.865 108.221 651.161 105.102 651.161 101.106C651.161 97.0408 649.865 93.8866 647.271 91.6435C644.678 89.4005 640.752 88.2789 635.495 88.2789H614.046L621.616 80.183V121.925ZM680.565 148V74.4001H712.423C719.012 74.4001 724.69 75.4866 729.457 77.6595C734.223 79.7624 737.903 82.8115 740.497 86.807C743.09 90.8024 744.387 95.5688 744.387 101.106C744.387 106.574 743.09 111.305 740.497 115.301C737.903 119.226 734.223 122.24 729.457 124.343C724.69 126.446 719.012 127.497 712.423 127.497H690.028L697.598 120.032V148H680.565ZM727.354 148L708.954 121.294H727.143L745.754 148H727.354ZM697.598 121.925L690.028 113.934H711.477C716.734 113.934 720.66 112.812 723.253 110.569C725.847 108.256 727.143 105.102 727.143 101.106C727.143 97.0408 725.847 93.8866 723.253 91.6435C720.66 89.4005 716.734 88.2789 711.477 88.2789H690.028L697.598 80.183V121.925ZM793.631 149.262C787.813 149.262 782.415 148.315 777.439 146.423C772.532 144.53 768.256 141.867 764.611 138.432C761.036 134.997 758.233 130.967 756.2 126.341C754.237 121.714 753.256 116.667 753.256 111.2C753.256 105.733 754.237 100.686 756.2 96.0595C758.233 91.4332 761.071 87.4028 764.716 83.9681C768.361 80.5334 772.637 77.8698 777.544 75.9772C782.45 74.0847 787.778 73.1384 793.525 73.1384C799.343 73.1384 804.671 74.0847 809.507 75.9772C814.414 77.8698 818.655 80.5334 822.229 83.9681C825.874 87.4028 828.713 91.4332 830.746 96.0595C832.779 100.616 833.795 105.663 833.795 111.2C833.795 116.667 832.779 121.749 830.746 126.446C828.713 131.072 825.874 135.102 822.229 138.537C818.655 141.902 814.414 144.53 809.507 146.423C804.671 148.315 799.378 149.262 793.631 149.262ZM793.525 134.752C796.82 134.752 799.834 134.191 802.568 133.07C805.372 131.948 807.825 130.336 809.928 128.233C812.031 126.13 813.643 123.642 814.764 120.768C815.956 117.894 816.552 114.705 816.552 111.2C816.552 107.695 815.956 104.506 814.764 101.632C813.643 98.7582 812.031 96.2698 809.928 94.1669C807.895 92.0641 805.477 90.4519 802.673 89.3304C799.869 88.2089 796.82 87.6481 793.525 87.6481C790.231 87.6481 787.182 88.2089 784.378 89.3304C781.644 90.4519 779.226 92.0641 777.123 94.1669C775.02 96.2698 773.373 98.7582 772.181 101.632C771.06 104.506 770.499 107.695 770.499 111.2C770.499 114.635 771.06 117.824 772.181 120.768C773.373 123.642 774.985 126.13 777.018 128.233C779.121 130.336 781.574 131.948 784.378 133.07C787.182 134.191 790.231 134.752 793.525 134.752ZM112.147 276V202.4H179.228V276H162.3V212.389L166.191 216.279H125.185L129.075 212.389V276H112.147ZM222.707 276.841C216.679 276.841 211.317 275.579 206.621 273.056C201.994 270.533 198.314 267.098 195.581 262.752C192.917 258.336 191.585 253.324 191.585 247.717C191.585 242.039 192.917 237.027 195.581 232.681C198.314 228.265 201.994 224.831 206.621 222.377C211.317 219.854 216.679 218.592 222.707 218.592C228.666 218.592 233.993 219.854 238.689 222.377C243.385 224.831 247.065 228.23 249.729 232.576C252.393 236.922 253.725 241.969 253.725 247.717C253.725 253.324 252.393 258.336 249.729 262.752C247.065 267.098 243.385 270.533 238.689 273.056C233.993 275.579 228.666 276.841 222.707 276.841ZM222.707 263.383C225.441 263.383 227.894 262.752 230.067 261.49C232.24 260.229 233.958 258.441 235.219 256.128C236.481 253.745 237.112 250.941 237.112 247.717C237.112 244.422 236.481 241.618 235.219 239.305C233.958 236.992 232.24 235.205 230.067 233.943C227.894 232.681 225.441 232.05 222.707 232.05C219.974 232.05 217.52 232.681 215.347 233.943C213.174 235.205 211.422 236.992 210.09 239.305C208.829 241.618 208.198 244.422 208.198 247.717C208.198 250.941 208.829 253.745 210.09 256.128C211.422 258.441 213.174 260.229 215.347 261.49C217.52 262.752 219.974 263.383 222.707 263.383ZM305.065 276L286.14 249.189L299.493 241.303L324.412 276H305.065ZM265.006 276V219.433H281.408V276H265.006ZM276.572 254.551V241.408H296.339V254.551H276.572ZM301.07 249.609L285.719 247.927L305.591 219.433H323.045L301.07 249.609ZM357.216 276.841C351.188 276.841 345.826 275.579 341.129 273.056C336.503 270.533 332.823 267.098 330.089 262.752C327.426 258.336 326.094 253.324 326.094 247.717C326.094 242.039 327.426 237.027 330.089 232.681C332.823 228.265 336.503 224.831 341.129 222.377C345.826 219.854 351.188 218.592 357.216 218.592C363.174 218.592 368.501 219.854 373.198 222.377C377.894 224.831 381.574 228.23 384.238 232.576C386.901 236.922 388.233 241.969 388.233 247.717C388.233 253.324 386.901 258.336 384.238 262.752C381.574 267.098 377.894 270.533 373.198 273.056C368.501 275.579 363.174 276.841 357.216 276.841ZM357.216 263.383C359.95 263.383 362.403 262.752 364.576 261.49C366.749 260.229 368.466 258.441 369.728 256.128C370.99 253.745 371.621 250.941 371.621 247.717C371.621 244.422 370.99 241.618 369.728 239.305C368.466 236.992 366.749 235.205 364.576 233.943C362.403 232.681 359.95 232.05 357.216 232.05C354.482 232.05 352.029 232.681 349.856 233.943C347.683 235.205 345.931 236.992 344.599 239.305C343.337 241.618 342.706 244.422 342.706 247.717C342.706 250.941 343.337 253.745 344.599 256.128C345.931 258.441 347.683 260.229 349.856 261.49C352.029 262.752 354.482 263.383 357.216 263.383ZM391.544 275.895L392.385 262.437C392.805 262.507 393.226 262.577 393.646 262.647C394.067 262.647 394.453 262.647 394.803 262.647C396.766 262.647 398.308 262.086 399.429 260.965C400.551 259.843 401.392 258.336 401.953 256.443C402.513 254.481 402.899 252.273 403.109 249.819C403.39 247.366 403.6 244.808 403.74 242.144L404.581 219.433H452.947V276H436.545V228.896L440.225 232.891H415.411L418.881 228.686L418.145 242.88C417.934 247.927 417.514 252.553 416.883 256.759C416.322 260.965 415.376 264.61 414.044 267.694C412.712 270.708 410.925 273.056 408.682 274.738C406.439 276.35 403.565 277.157 400.06 277.157C398.798 277.157 397.467 277.051 396.065 276.841C394.663 276.631 393.156 276.315 391.544 275.895ZM496.372 276.841C489.924 276.841 484.246 275.579 479.339 273.056C474.503 270.533 470.753 267.098 468.089 262.752C465.425 258.336 464.094 253.324 464.094 247.717C464.094 242.039 465.39 237.027 467.984 232.681C470.648 228.265 474.257 224.831 478.814 222.377C483.37 219.854 488.522 218.592 494.27 218.592C499.807 218.592 504.784 219.784 509.2 222.167C513.686 224.48 517.226 227.845 519.819 232.261C522.413 236.607 523.71 241.829 523.71 247.927C523.71 248.558 523.675 249.294 523.604 250.135C523.534 250.906 523.464 251.642 523.394 252.343H477.447V242.775H514.772L508.464 245.614C508.464 242.67 507.868 240.111 506.676 237.938C505.485 235.765 503.838 234.083 501.735 232.891C499.632 231.63 497.179 230.999 494.375 230.999C491.571 230.999 489.083 231.63 486.91 232.891C484.807 234.083 483.16 235.8 481.968 238.043C480.776 240.216 480.181 242.81 480.181 245.824V248.347C480.181 251.432 480.846 254.165 482.178 256.549C483.58 258.862 485.508 260.649 487.961 261.911C490.484 263.102 493.428 263.698 496.793 263.698C499.807 263.698 502.436 263.243 504.679 262.331C506.992 261.42 509.095 260.053 510.987 258.231L519.714 267.694C517.121 270.638 513.861 272.916 509.936 274.528C506.011 276.07 501.489 276.841 496.372 276.841ZM536.282 276V219.433H552.579V241.513H577.183V219.433H593.585V276H577.183V254.866H552.579V276H536.282ZM609.287 276V219.433H625.584V253.079L653.131 219.433H668.167V276H651.869V242.354L624.427 276H609.287ZM711.586 276.841C705.138 276.841 699.46 275.579 694.553 273.056C689.717 270.533 685.967 267.098 683.303 262.752C680.639 258.336 679.308 253.324 679.308 247.717C679.308 242.039 680.604 237.027 683.198 232.681C685.862 228.265 689.471 224.831 694.028 222.377C698.584 219.854 703.736 218.592 709.484 218.592C715.021 218.592 719.998 219.784 724.414 222.167C728.9 224.48 732.44 227.845 735.033 232.261C737.627 236.607 738.924 241.829 738.924 247.927C738.924 248.558 738.889 249.294 738.818 250.135C738.748 250.906 738.678 251.642 738.608 252.343H692.661V242.775H729.986L723.678 245.614C723.678 242.67 723.082 240.111 721.89 237.938C720.699 235.765 719.052 234.083 716.949 232.891C714.846 231.63 712.393 230.999 709.589 230.999C706.785 230.999 704.297 231.63 702.124 232.891C700.021 234.083 698.374 235.8 697.182 238.043C695.99 240.216 695.394 242.81 695.394 245.824V248.347C695.394 251.432 696.06 254.165 697.392 256.549C698.794 258.862 700.722 260.649 703.175 261.911C705.698 263.102 708.642 263.698 712.007 263.698C715.021 263.698 717.65 263.243 719.893 262.331C722.206 261.42 724.309 260.053 726.201 258.231L734.928 267.694C732.335 270.638 729.075 272.916 725.15 274.528C721.225 276.07 716.703 276.841 711.586 276.841ZM782.114 276V202.4H799.147V276H782.114ZM831.86 276V216.279H808.308V202.4H872.445V216.279H848.893V276H831.86Z" fill="white"/>
<path fill-rule="evenodd" clip-rule="evenodd" d="M54.087 7.19568C55.6914 11.3547 57.0019 14.9012 57 15.0768C56.9981 15.252 56.1964 15.774 55.2185 16.2366C53.0503 17.2622 49.4119 20.7943 48.1382 23.1099C45.1042 28.6244 44.2874 34.5953 44.2822 51.2936C44.278 65.7812 43.8144 69.0919 41.0188 74.6024C38.3348 79.8927 33.6045 84.5335 28.1168 87.2601C27.161 87.7354 26.3848 88.2268 26.3928 88.3522C26.4003 88.478 27.6467 89.2389 29.1625 90.0435C33.1457 92.1577 36.3898 94.9538 38.7545 98.3108C43.6119 105.206 44.277 108.437 44.2822 125.146C44.2864 138.236 44.6604 143.426 45.9238 147.913C47.514 153.56 50.7624 158.006 54.9674 160.292C56.0838 160.898 56.9958 161.523 56.9948 161.68C56.9925 162.054 51.322 176.766 51.1015 176.97C50.7426 177.304 43.3231 174.747 39.8007 173.077C25.9095 166.488 18.1264 155.833 16.5055 141.182C16.2361 138.748 16.0123 131.323 16.0085 124.681C16.0015 111.984 15.6402 108.979 13.7042 105.494C11.6594 101.814 7.42041 99.2211 2.473 98.6253L0 98.327V88.3967V78.4665L3.12729 77.9322C7.10669 77.2521 9.27068 76.2199 11.4879 73.9436C15.3877 69.941 16.0147 66.8029 16.0194 51.2613C16.0236 38.3074 16.4297 33.3473 17.9347 27.8625C21.2763 15.6853 31.0684 6.1543 45.0618 1.45892C51.7883 -0.798573 50.7497 -1.45861 54.087 7.19568Z" fill="#BBC0FF"/>
<path fill-rule="evenodd" clip-rule="evenodd" d="M921.913 370.316C920.309 365.876 918.998 362.089 919 361.901C919.002 361.714 919.804 361.157 920.782 360.663C922.95 359.567 926.588 355.796 927.862 353.323C930.896 347.435 931.713 341.059 931.718 323.229C931.722 307.759 932.186 304.224 934.981 298.34C937.665 292.691 942.395 287.735 947.883 284.824C948.839 284.316 949.615 283.792 949.607 283.658C949.6 283.524 948.353 282.711 946.837 281.852C942.854 279.594 939.61 276.609 937.246 273.024C932.388 265.661 931.723 262.212 931.718 244.37C931.714 230.392 931.34 224.851 930.076 220.059C928.486 214.029 925.238 209.281 921.033 206.841C919.916 206.194 919.004 205.526 919.005 205.358C919.008 204.959 924.678 189.25 924.898 189.032C925.257 188.676 932.677 191.406 936.199 193.189C950.091 200.224 957.874 211.602 959.495 227.246C959.764 229.845 959.988 237.774 959.991 244.866C959.999 258.424 960.36 261.633 962.296 265.354C964.341 269.284 968.58 272.052 973.527 272.688L976 273.007V283.61V294.214L972.873 294.784C968.893 295.51 966.729 296.613 964.512 299.043C960.612 303.317 959.985 306.668 959.981 323.263C959.976 337.096 959.57 342.392 958.065 348.248C954.724 361.251 944.932 371.428 930.938 376.442C924.212 378.853 925.25 379.557 921.913 370.316Z" fill="#BBC0FF"/>
<path d="M104.188 35V31.22L113.908 22.04C114.676 21.344 115.24 20.72 115.6 20.168C115.96 19.616 116.2 19.112 116.32 18.656C116.464 18.2 116.536 17.78 116.536 17.396C116.536 16.388 116.188 15.62 115.492 15.092C114.82 14.54 113.824 14.264 112.504 14.264C111.448 14.264 110.464 14.468 109.552 14.876C108.664 15.284 107.908 15.92 107.284 16.784L103.036 14.048C103.996 12.608 105.34 11.468 107.068 10.628C108.796 9.788 110.788 9.368 113.044 9.368C114.916 9.368 116.548 9.68 117.94 10.304C119.356 10.904 120.448 11.756 121.216 12.86C122.008 13.964 122.404 15.284 122.404 16.82C122.404 17.636 122.296 18.452 122.08 19.268C121.888 20.06 121.48 20.9 120.856 21.788C120.256 22.676 119.368 23.672 118.192 24.776L110.128 32.372L109.012 30.248H123.232V35H104.188ZM136.438 35.432C134.374 35.432 132.526 34.928 130.894 33.92C129.262 32.888 127.978 31.4 127.042 29.456C126.106 27.512 125.638 25.16 125.638 22.4C125.638 19.64 126.106 17.288 127.042 15.344C127.978 13.4 129.262 11.924 130.894 10.916C132.526 9.884 134.374 9.368 136.438 9.368C138.526 9.368 140.374 9.884 141.982 10.916C143.614 11.924 144.898 13.4 145.834 15.344C146.77 17.288 147.238 19.64 147.238 22.4C147.238 25.16 146.77 27.512 145.834 29.456C144.898 31.4 143.614 32.888 141.982 33.92C140.374 34.928 138.526 35.432 136.438 35.432ZM136.438 30.5C137.422 30.5 138.274 30.224 138.994 29.672C139.738 29.12 140.314 28.244 140.722 27.044C141.154 25.844 141.37 24.296 141.37 22.4C141.37 20.504 141.154 18.956 140.722 17.756C140.314 16.556 139.738 15.68 138.994 15.128C138.274 14.576 137.422 14.3 136.438 14.3C135.478 14.3 134.626 14.576 133.882 15.128C133.162 15.68 132.586 16.556 132.154 17.756C131.746 18.956 131.542 20.504 131.542 22.4C131.542 24.296 131.746 25.844 132.154 27.044C132.586 28.244 133.162 29.12 133.882 29.672C134.626 30.224 135.478 30.5 136.438 30.5ZM161.563 35V15.632H167.431L174.739 28.88H172.399L180.211 15.632H185.467L185.539 35H180.463V21.392L181.327 21.968L174.667 33.128H172.291L165.595 21.572L166.639 21.32V35H161.563ZM202.511 35V31.22L202.151 30.392V23.624C202.151 22.424 201.779 21.488 201.035 20.816C200.315 20.144 199.199 19.808 197.687 19.808C196.655 19.808 195.635 19.976 194.627 20.312C193.643 20.624 192.803 21.056 192.107 21.608L190.091 17.684C191.147 16.94 192.419 16.364 193.907 15.956C195.395 15.548 196.907 15.344 198.443 15.344C201.395 15.344 203.687 16.04 205.319 17.432C206.951 18.824 207.767 20.996 207.767 23.948V35H202.511ZM196.607 35.288C195.095 35.288 193.799 35.036 192.719 34.532C191.639 34.004 190.811 33.296 190.235 32.408C189.659 31.52 189.371 30.524 189.371 29.42C189.371 28.268 189.647 27.26 190.199 26.396C190.775 25.532 191.675 24.86 192.899 24.38C194.123 23.876 195.719 23.624 197.687 23.624H202.835V26.9H198.299C196.979 26.9 196.067 27.116 195.563 27.548C195.083 27.98 194.843 28.52 194.843 29.168C194.843 29.888 195.119 30.464 195.671 30.896C196.247 31.304 197.027 31.508 198.011 31.508C198.947 31.508 199.787 31.292 200.531 30.86C201.275 30.404 201.815 29.744 202.151 28.88L203.015 31.472C202.607 32.72 201.863 33.668 200.783 34.316C199.703 34.964 198.311 35.288 196.607 35.288ZM224.849 35V28.556L225.641 29.456H220.277C217.493 29.456 215.309 28.88 213.725 27.728C212.141 26.576 211.349 24.92 211.349 22.76C211.349 20.456 212.177 18.692 213.833 17.468C215.513 16.244 217.769 15.632 220.601 15.632H229.853V35H224.849ZM211.061 35L216.209 27.62H221.933L217.037 35H211.061ZM224.849 26.828V18.764L225.641 20.204H220.709C219.557 20.204 218.657 20.42 218.009 20.852C217.385 21.284 217.073 21.98 217.073 22.94C217.073 24.788 218.261 25.712 220.637 25.712H225.641L224.849 26.828Z" fill="#BBC0FF"/>
<rect width="59" height="5" rx="1" transform="matrix(1 0 0 -1 253 24.5)" fill="#BBC0FF"/>
<path d="M333.188 35V31.22L342.908 22.04C343.676 21.344 344.24 20.72 344.6 20.168C344.96 19.616 345.2 19.112 345.32 18.656C345.464 18.2 345.536 17.78 345.536 17.396C345.536 16.388 345.188 15.62 344.492 15.092C343.82 14.54 342.824 14.264 341.504 14.264C340.448 14.264 339.464 14.468 338.552 14.876C337.664 15.284 336.908 15.92 336.284 16.784L332.036 14.048C332.996 12.608 334.34 11.468 336.068 10.628C337.796 9.788 339.788 9.368 342.044 9.368C343.916 9.368 345.548 9.68 346.94 10.304C348.356 10.904 349.448 11.756 350.216 12.86C351.008 13.964 351.404 15.284 351.404 16.82C351.404 17.636 351.296 18.452 351.08 19.268C350.888 20.06 350.48 20.9 349.856 21.788C349.256 22.676 348.368 23.672 347.192 24.776L339.128 32.372L338.012 30.248H352.232V35H333.188ZM354.422 35V31.22L364.142 22.04C364.91 21.344 365.474 20.72 365.834 20.168C366.194 19.616 366.434 19.112 366.554 18.656C366.698 18.2 366.77 17.78 366.77 17.396C366.77 16.388 366.422 15.62 365.726 15.092C365.054 14.54 364.058 14.264 362.738 14.264C361.682 14.264 360.698 14.468 359.786 14.876C358.898 15.284 358.142 15.92 357.518 16.784L353.27 14.048C354.23 12.608 355.574 11.468 357.302 10.628C359.03 9.788 361.022 9.368 363.278 9.368C365.15 9.368 366.782 9.68 368.174 10.304C369.59 10.904 370.682 11.756 371.45 12.86C372.242 13.964 372.638 15.284 372.638 16.82C372.638 17.636 372.53 18.452 372.314 19.268C372.122 20.06 371.714 20.9 371.09 21.788C370.49 22.676 369.602 23.672 368.426 24.776L360.362 32.372L359.246 30.248H373.466V35H354.422ZM387.364 35V15.632H393.232L400.54 28.88H398.2L406.012 15.632H411.268L411.34 35H406.264V21.392L407.128 21.968L400.468 33.128H398.092L391.396 21.572L392.44 21.32V35H387.364ZM428.312 35V31.22L427.952 30.392V23.624C427.952 22.424 427.58 21.488 426.836 20.816C426.116 20.144 425 19.808 423.488 19.808C422.456 19.808 421.436 19.976 420.428 20.312C419.444 20.624 418.604 21.056 417.908 21.608L415.892 17.684C416.948 16.94 418.22 16.364 419.708 15.956C421.196 15.548 422.708 15.344 424.244 15.344C427.196 15.344 429.488 16.04 431.12 17.432C432.752 18.824 433.568 20.996 433.568 23.948V35H428.312ZM422.408 35.288C420.896 35.288 419.6 35.036 418.52 34.532C417.44 34.004 416.612 33.296 416.036 32.408C415.46 31.52 415.172 30.524 415.172 29.42C415.172 28.268 415.448 27.26 416 26.396C416.576 25.532 417.476 24.86 418.7 24.38C419.924 23.876 421.52 23.624 423.488 23.624H428.636V26.9H424.1C422.78 26.9 421.868 27.116 421.364 27.548C420.884 27.98 420.644 28.52 420.644 29.168C420.644 29.888 420.92 30.464 421.472 30.896C422.048 31.304 422.828 31.508 423.812 31.508C424.748 31.508 425.588 31.292 426.332 30.86C427.076 30.404 427.616 29.744 427.952 28.88L428.816 31.472C428.408 32.72 427.664 33.668 426.584 34.316C425.504 34.964 424.112 35.288 422.408 35.288ZM450.65 35V28.556L451.442 29.456H446.078C443.294 29.456 441.11 28.88 439.526 27.728C437.942 26.576 437.15 24.92 437.15 22.76C437.15 20.456 437.978 18.692 439.634 17.468C441.314 16.244 443.57 15.632 446.402 15.632H455.654V35H450.65ZM436.862 35L442.01 27.62H447.734L442.838 35H436.862ZM450.65 26.828V18.764L451.442 20.204H446.51C445.358 20.204 444.458 20.42 443.81 20.852C443.186 21.284 442.874 21.98 442.874 22.94C442.874 24.788 444.062 25.712 446.438 25.712H451.442L450.65 26.828ZM469.735 35V31.22L479.455 22.04C480.223 21.344 480.787 20.72 481.147 20.168C481.507 19.616 481.747 19.112 481.867 18.656C482.011 18.2 482.083 17.78 482.083 17.396C482.083 16.388 481.735 15.62 481.039 15.092C480.367 14.54 479.371 14.264 478.051 14.264C476.995 14.264 476.011 14.468 475.099 14.876C474.211 15.284 473.455 15.92 472.831 16.784L468.583 14.048C469.543 12.608 470.887 11.468 472.615 10.628C474.343 9.788 476.335 9.368 478.591 9.368C480.463 9.368 482.095 9.68 483.487 10.304C484.903 10.904 485.995 11.756 486.763 12.86C487.555 13.964 487.951 15.284 487.951 16.82C487.951 17.636 487.843 18.452 487.627 19.268C487.435 20.06 487.027 20.9 486.403 21.788C485.803 22.676 484.915 23.672 483.739 24.776L475.675 32.372L474.559 30.248H488.779V35H469.735ZM501.985 35.432C499.921 35.432 498.073 34.928 496.441 33.92C494.809 32.888 493.525 31.4 492.589 29.456C491.653 27.512 491.185 25.16 491.185 22.4C491.185 19.64 491.653 17.288 492.589 15.344C493.525 13.4 494.809 11.924 496.441 10.916C498.073 9.884 499.921 9.368 501.985 9.368C504.073 9.368 505.921 9.884 507.529 10.916C509.161 11.924 510.445 13.4 511.381 15.344C512.317 17.288 512.785 19.64 512.785 22.4C512.785 25.16 512.317 27.512 511.381 29.456C510.445 31.4 509.161 32.888 507.529 33.92C505.921 34.928 504.073 35.432 501.985 35.432ZM501.985 30.5C502.969 30.5 503.821 30.224 504.541 29.672C505.285 29.12 505.861 28.244 506.269 27.044C506.701 25.844 506.917 24.296 506.917 22.4C506.917 20.504 506.701 18.956 506.269 17.756C505.861 16.556 505.285 15.68 504.541 15.128C503.821 14.576 502.969 14.3 501.985 14.3C501.025 14.3 500.173 14.576 499.429 15.128C498.709 15.68 498.133 16.556 497.701 17.756C497.293 18.956 497.089 20.504 497.089 22.4C497.089 24.296 497.293 25.844 497.701 27.044C498.133 28.244 498.709 29.12 499.429 29.672C500.173 30.224 501.025 30.5 501.985 30.5ZM515.262 35V31.22L524.982 22.04C525.75 21.344 526.314 20.72 526.674 20.168C527.034 19.616 527.274 19.112 527.394 18.656C527.538 18.2 527.61 17.78 527.61 17.396C527.61 16.388 527.262 15.62 526.566 15.092C525.894 14.54 524.898 14.264 523.578 14.264C522.522 14.264 521.538 14.468 520.626 14.876C519.738 15.284 518.982 15.92 518.358 16.784L514.11 14.048C515.07 12.608 516.414 11.468 518.142 10.628C519.87 9.788 521.862 9.368 524.118 9.368C525.99 9.368 527.622 9.68 529.014 10.304C530.43 10.904 531.522 11.756 532.29 12.86C533.082 13.964 533.478 15.284 533.478 16.82C533.478 17.636 533.37 18.452 533.154 19.268C532.962 20.06 532.554 20.9 531.93 21.788C531.33 22.676 530.442 23.672 529.266 24.776L521.202 32.372L520.086 30.248H534.306V35H515.262ZM536.497 35V31.22L546.217 22.04C546.985 21.344 547.549 20.72 547.909 20.168C548.269 19.616 548.509 19.112 548.629 18.656C548.773 18.2 548.845 17.78 548.845 17.396C548.845 16.388 548.497 15.62 547.801 15.092C547.129 14.54 546.133 14.264 544.813 14.264C543.757 14.264 542.773 14.468 541.861 14.876C540.973 15.284 540.217 15.92 539.593 16.784L535.345 14.048C536.305 12.608 537.649 11.468 539.377 10.628C541.105 9.788 543.097 9.368 545.353 9.368C547.225 9.368 548.857 9.68 550.249 10.304C551.665 10.904 552.757 11.756 553.525 12.86C554.317 13.964 554.713 15.284 554.713 16.82C554.713 17.636 554.605 18.452 554.389 19.268C554.197 20.06 553.789 20.9 553.165 21.788C552.565 22.676 551.677 23.672 550.501 24.776L542.437 32.372L541.321 30.248H555.541V35H536.497Z" fill="#BBC0FF"/>
</svg>
