<svg width="770" height="215" viewBox="0 0 770 215" fill="none" xmlns="http://www.w3.org/2000/svg">
<g clip-path="url(#clip0_70_73)">
<path opacity="0.1" d="M166.595 214.863C186.403 214.863 202.461 213.66 202.461 212.176C202.461 210.692 186.403 209.489 166.595 209.489C146.787 209.489 130.729 210.692 130.729 212.176C130.729 213.66 146.787 214.863 166.595 214.863Z" fill="#2A94F4"/>
<path d="M692.116 157.117H78.1112C35.1159 157.117 0.256104 122.011 0.256104 78.713C0.256104 35.4146 35.1159 0.30896 78.1112 0.30896H692.116C735.112 0.30896 769.971 35.4146 769.971 78.713C769.971 122.011 735.112 157.117 692.116 157.117Z" fill="#CCE9FF"/>
<path opacity="0.15" d="M690.279 140.071H79.9482C46.313 140.071 19.02 112.585 19.02 78.713C19.02 44.8407 46.313 17.3553 79.9482 17.3553H690.323C723.958 17.3553 751.251 44.8407 751.251 78.713C751.251 112.585 723.958 140.071 690.279 140.071Z" fill="#0E538C"/>
<path d="M619.86 140.071H79.9482C46.313 140.071 19.02 112.585 19.02 78.713C19.02 44.8407 46.313 17.3553 79.9482 17.3553H619.904C632.151 17.3553 642.036 27.354 642.036 39.6431V117.739C642.036 130.072 632.107 140.071 619.86 140.071Z" fill="#85CBCF"/>
<path d="M220.538 78.32C221.839 78.768 222.853 79.472 223.578 80.432C224.325 81.3707 224.698 82.4693 224.698 83.728C224.698 85.0933 224.25 86.2773 223.354 87.28C222.458 88.2827 221.242 89.0507 219.706 89.584C218.191 90.1173 216.527 90.384 214.714 90.384C213.178 90.384 211.642 90.192 210.106 89.808C208.591 89.424 207.151 88.8373 205.786 88.048L207.386 84.336C208.367 84.9333 209.445 85.392 210.618 85.712C211.813 86.0107 212.975 86.16 214.106 86.16C215.642 86.16 216.911 85.8827 217.914 85.328C218.938 84.7733 219.45 83.9947 219.45 82.992C219.45 82.16 219.098 81.5307 218.394 81.104C217.711 80.6773 216.773 80.464 215.578 80.464H210.106V76.56H215.194C216.239 76.56 217.05 76.3467 217.626 75.92C218.223 75.4933 218.522 74.9067 218.522 74.16C218.522 73.2853 218.095 72.6027 217.242 72.112C216.41 71.6213 215.333 71.376 214.01 71.376C213.029 71.376 212.015 71.5147 210.97 71.792C209.925 72.048 208.933 72.4427 207.994 72.976L206.426 68.944C208.794 67.728 211.354 67.12 214.106 67.12C215.855 67.12 217.466 67.376 218.938 67.888C220.41 68.4 221.583 69.1467 222.458 70.128C223.333 71.1093 223.77 72.2507 223.77 73.552C223.77 74.6187 223.482 75.568 222.906 76.4C222.33 77.232 221.541 77.872 220.538 78.32ZM235.106 72.528C237.773 72.528 239.821 73.168 241.25 74.448C242.679 75.7067 243.394 77.616 243.394 80.176V90H238.722V87.856C237.783 89.456 236.034 90.256 233.474 90.256C232.151 90.256 230.999 90.032 230.018 89.584C229.058 89.136 228.322 88.5173 227.81 87.728C227.298 86.9387 227.042 86.0427 227.042 85.04C227.042 83.44 227.639 82.1813 228.834 81.264C230.05 80.3467 231.917 79.888 234.434 79.888H238.402C238.402 78.8 238.071 77.968 237.41 77.392C236.749 76.7947 235.757 76.496 234.434 76.496C233.517 76.496 232.61 76.6453 231.714 76.944C230.839 77.2213 230.093 77.6053 229.474 78.096L227.682 74.608C228.621 73.9467 229.741 73.4347 231.042 73.072C232.365 72.7093 233.719 72.528 235.106 72.528ZM234.722 86.896C235.575 86.896 236.333 86.704 236.994 86.32C237.655 85.9147 238.125 85.328 238.402 84.56V82.8H234.978C232.93 82.8 231.906 83.472 231.906 84.816C231.906 85.456 232.151 85.968 232.642 86.352C233.154 86.7147 233.847 86.896 234.722 86.896ZM257.875 72.528C259.475 72.528 260.925 72.9013 262.227 73.648C263.549 74.3733 264.584 75.408 265.331 76.752C266.077 78.0747 266.451 79.6213 266.451 81.392C266.451 83.1627 266.077 84.72 265.331 86.064C264.584 87.3867 263.549 88.4213 262.227 89.168C260.925 89.8933 259.475 90.256 257.875 90.256C255.677 90.256 253.949 89.5627 252.691 88.176V96.208H247.699V72.784H252.467V74.768C253.704 73.2747 255.507 72.528 257.875 72.528ZM257.011 86.16C258.291 86.16 259.336 85.7333 260.147 84.88C260.979 84.0053 261.395 82.8427 261.395 81.392C261.395 79.9413 260.979 78.7893 260.147 77.936C259.336 77.0613 258.291 76.624 257.011 76.624C255.731 76.624 254.675 77.0613 253.843 77.936C253.032 78.7893 252.627 79.9413 252.627 81.392C252.627 82.8427 253.032 84.0053 253.843 84.88C254.675 85.7333 255.731 86.16 257.011 86.16ZM286.685 81.456C286.685 81.52 286.653 81.968 286.589 82.8H273.565C273.8 83.8667 274.355 84.7093 275.229 85.328C276.104 85.9467 277.192 86.256 278.493 86.256C279.389 86.256 280.179 86.128 280.861 85.872C281.565 85.5947 282.216 85.168 282.813 84.592L285.469 87.472C283.848 89.328 281.48 90.256 278.365 90.256C276.424 90.256 274.707 89.8827 273.213 89.136C271.72 88.368 270.568 87.312 269.757 85.968C268.947 84.624 268.541 83.0987 268.541 81.392C268.541 79.7067 268.936 78.192 269.725 76.848C270.536 75.4827 271.635 74.4267 273.021 73.68C274.429 72.912 275.997 72.528 277.725 72.528C279.411 72.528 280.936 72.8907 282.301 73.616C283.667 74.3413 284.733 75.3867 285.501 76.752C286.291 78.096 286.685 79.664 286.685 81.456ZM277.757 76.304C276.627 76.304 275.677 76.624 274.909 77.264C274.141 77.904 273.672 78.7787 273.501 79.888H281.981C281.811 78.8 281.341 77.936 280.573 77.296C279.805 76.6347 278.867 76.304 277.757 76.304ZM304.304 76.88H295.472V90H290.512V72.784H304.304V76.88ZM306.949 72.784H311.909V83.024L320.293 72.784H324.869V90H319.909V79.76L311.557 90H306.949V72.784ZM337.86 90.256C336.025 90.256 334.372 89.8827 332.9 89.136C331.449 88.368 330.308 87.312 329.476 85.968C328.665 84.624 328.26 83.0987 328.26 81.392C328.26 79.6853 328.665 78.16 329.476 76.816C330.308 75.472 331.449 74.4267 332.9 73.68C334.372 72.912 336.025 72.528 337.86 72.528C339.673 72.528 341.252 72.912 342.596 73.68C343.961 74.4267 344.953 75.504 345.572 76.912L341.7 78.992C340.804 77.4133 339.513 76.624 337.828 76.624C336.527 76.624 335.449 77.0507 334.596 77.904C333.743 78.7573 333.316 79.92 333.316 81.392C333.316 82.864 333.743 84.0267 334.596 84.88C335.449 85.7333 336.527 86.16 337.828 86.16C339.535 86.16 340.825 85.3707 341.7 83.792L345.572 85.904C344.953 87.2693 343.961 88.336 342.596 89.104C341.252 89.872 339.673 90.256 337.86 90.256ZM363.007 76.88H357.183V90H352.223V76.88H346.399V72.784H363.007V76.88ZM375.812 72.528C377.412 72.528 378.863 72.9013 380.164 73.648C381.487 74.3733 382.521 75.408 383.268 76.752C384.015 78.0747 384.388 79.6213 384.388 81.392C384.388 83.1627 384.015 84.72 383.268 86.064C382.521 87.3867 381.487 88.4213 380.164 89.168C378.863 89.8933 377.412 90.256 375.812 90.256C373.615 90.256 371.887 89.5627 370.628 88.176V96.208H365.636V72.784H370.404V74.768C371.641 73.2747 373.444 72.528 375.812 72.528ZM374.948 86.16C376.228 86.16 377.273 85.7333 378.084 84.88C378.916 84.0053 379.332 82.8427 379.332 81.392C379.332 79.9413 378.916 78.7893 378.084 77.936C377.273 77.0613 376.228 76.624 374.948 76.624C373.668 76.624 372.612 77.0613 371.78 77.936C370.969 78.7893 370.564 79.9413 370.564 81.392C370.564 82.8427 370.969 84.0053 371.78 84.88C372.612 85.7333 373.668 86.16 374.948 86.16ZM387.887 72.784H392.847V83.024L401.231 72.784H405.807V90H400.847V79.76L392.495 90H387.887V72.784ZM420.75 72.528C422.35 72.528 423.8 72.9013 425.102 73.648C426.424 74.3733 427.459 75.408 428.206 76.752C428.952 78.0747 429.326 79.6213 429.326 81.392C429.326 83.1627 428.952 84.72 428.206 86.064C427.459 87.3867 426.424 88.4213 425.102 89.168C423.8 89.8933 422.35 90.256 420.75 90.256C418.552 90.256 416.824 89.5627 415.566 88.176V96.208H410.574V72.784H415.342V74.768C416.579 73.2747 418.382 72.528 420.75 72.528ZM419.886 86.16C421.166 86.16 422.211 85.7333 423.022 84.88C423.854 84.0053 424.27 82.8427 424.27 81.392C424.27 79.9413 423.854 78.7893 423.022 77.936C422.211 77.0613 421.166 76.624 419.886 76.624C418.606 76.624 417.55 77.0613 416.718 77.936C415.907 78.7893 415.502 79.9413 415.502 81.392C415.502 82.8427 415.907 84.0053 416.718 84.88C417.55 85.7333 418.606 86.16 419.886 86.16ZM440.888 90.256C439.075 90.256 437.443 89.8827 435.992 89.136C434.563 88.368 433.443 87.312 432.632 85.968C431.822 84.624 431.416 83.0987 431.416 81.392C431.416 79.6853 431.822 78.16 432.632 76.816C433.443 75.472 434.563 74.4267 435.992 73.68C437.443 72.912 439.075 72.528 440.888 72.528C442.702 72.528 444.323 72.912 445.752 73.68C447.182 74.4267 448.302 75.472 449.112 76.816C449.923 78.16 450.328 79.6853 450.328 81.392C450.328 83.0987 449.923 84.624 449.112 85.968C448.302 87.312 447.182 88.368 445.752 89.136C444.323 89.8827 442.702 90.256 440.888 90.256ZM440.888 86.16C442.168 86.16 443.214 85.7333 444.024 84.88C444.856 84.0053 445.272 82.8427 445.272 81.392C445.272 79.9413 444.856 78.7893 444.024 77.936C443.214 77.0613 442.168 76.624 440.888 76.624C439.608 76.624 438.552 77.0613 437.72 77.936C436.888 78.7893 436.472 79.9413 436.472 81.392C436.472 82.8427 436.888 84.0053 437.72 84.88C438.552 85.7333 439.608 86.16 440.888 86.16ZM466.914 81.008C468.94 81.6907 469.954 83.056 469.954 85.104C469.954 86.6613 469.367 87.8667 468.194 88.72C467.02 89.5733 465.271 90 462.946 90H453.762V72.784H462.562C464.716 72.784 466.402 73.1787 467.618 73.968C468.834 74.736 469.442 75.824 469.442 77.232C469.442 78.0853 469.218 78.8427 468.77 79.504C468.343 80.144 467.724 80.6453 466.914 81.008ZM458.338 79.856H462.114C463.863 79.856 464.738 79.2373 464.738 78C464.738 76.784 463.863 76.176 462.114 76.176H458.338V79.856ZM462.53 86.608C464.364 86.608 465.282 85.9787 465.282 84.72C465.282 84.0587 465.068 83.5787 464.642 83.28C464.215 82.96 463.543 82.8 462.626 82.8H458.338V86.608H462.53ZM480.356 72.528C483.023 72.528 485.071 73.168 486.5 74.448C487.929 75.7067 488.644 77.616 488.644 80.176V90H483.972V87.856C483.033 89.456 481.284 90.256 478.724 90.256C477.401 90.256 476.249 90.032 475.268 89.584C474.308 89.136 473.572 88.5173 473.06 87.728C472.548 86.9387 472.292 86.0427 472.292 85.04C472.292 83.44 472.889 82.1813 474.084 81.264C475.3 80.3467 477.167 79.888 479.684 79.888H483.652C483.652 78.8 483.321 77.968 482.66 77.392C481.999 76.7947 481.007 76.496 479.684 76.496C478.767 76.496 477.86 76.6453 476.964 76.944C476.089 77.2213 475.343 77.6053 474.724 78.096L472.932 74.608C473.871 73.9467 474.991 73.4347 476.292 73.072C477.615 72.7093 478.969 72.528 480.356 72.528ZM479.972 86.896C480.825 86.896 481.583 86.704 482.244 86.32C482.905 85.9147 483.375 85.328 483.652 84.56V82.8H480.228C478.18 82.8 477.156 83.472 477.156 84.816C477.156 85.456 477.401 85.968 477.892 86.352C478.404 86.7147 479.097 86.896 479.972 86.896ZM507.445 76.88H501.621V90H496.661V76.88H490.837V72.784H507.445V76.88ZM519.418 78.288C521.658 78.3093 523.375 78.8213 524.57 79.824C525.764 80.8053 526.362 82.2027 526.362 84.016C526.362 85.9147 525.69 87.3973 524.346 88.464C523.023 89.5093 521.156 90.032 518.746 90.032L510.106 90V72.784H515.066V78.288H519.418ZM518.298 86.48C519.258 86.5013 519.994 86.2987 520.506 85.872C521.018 85.4453 521.274 84.8053 521.274 83.952C521.274 83.12 521.018 82.512 520.506 82.128C520.015 81.744 519.279 81.5413 518.298 81.52L515.066 81.488V86.48H518.298ZM537.673 90.256C535.838 90.256 534.185 89.8827 532.713 89.136C531.262 88.368 530.121 87.312 529.289 85.968C528.478 84.624 528.073 83.0987 528.073 81.392C528.073 79.6853 528.478 78.16 529.289 76.816C530.121 75.472 531.262 74.4267 532.713 73.68C534.185 72.912 535.838 72.528 537.673 72.528C539.486 72.528 541.065 72.912 542.409 73.68C543.774 74.4267 544.766 75.504 545.385 76.912L541.513 78.992C540.617 77.4133 539.326 76.624 537.641 76.624C536.339 76.624 535.262 77.0507 534.409 77.904C533.555 78.7573 533.129 79.92 533.129 81.392C533.129 82.864 533.555 84.0267 534.409 84.88C535.262 85.7333 536.339 86.16 537.641 86.16C539.347 86.16 540.638 85.3707 541.513 83.792L545.385 85.904C544.766 87.2693 543.774 88.336 542.409 89.104C541.065 89.872 539.486 90.256 537.673 90.256ZM563.277 72.784V90H558.829V85.072H555.149L551.885 90H546.573L550.509 84.368C549.314 83.8987 548.397 83.2267 547.757 82.352C547.138 81.456 546.829 80.3787 546.829 79.12C546.829 77.0933 547.554 75.536 549.005 74.448C550.477 73.3387 552.493 72.784 555.053 72.784H563.277ZM555.149 76.848C554.082 76.848 553.271 77.04 552.717 77.424C552.183 77.808 551.917 78.4267 551.917 79.28C551.917 80.1333 552.173 80.7627 552.685 81.168C553.218 81.552 554.018 81.744 555.085 81.744H558.829V76.848H555.149Z" fill="white"/>
<path d="M170.531 183.237L179.192 206.626L192.926 207.815L199.967 206.758L185.227 202.045L178.404 180.418L170.531 183.237Z" fill="#FCD2B1"/>
<path d="M118.133 133.508L150.674 134.609L176.436 200.944L184.965 198.918L162.134 119.677C162.134 119.677 160.515 115.316 150.674 114.7C141.139 114.083 102.693 110.559 98.2314 111.572C87.6904 114.039 120.451 124.346 118.133 133.508ZM108.641 30.217C105.623 35.8991 96.0007 33.6527 96.0007 33.6527C90.6209 30.4373 88.6963 23.2576 91.7581 17.5755L93.8138 13.6993C96.8318 8.01723 103.655 5.99106 109.035 9.2065L111.484 10.6601C116.864 13.8755 119.445 22.8171 113.103 28.7635L108.641 30.217Z" fill="#0E538C"/>
<path d="M115.202 18.016C114.677 18.941 114.108 19.8659 113.408 20.7909C108.903 26.7814 102.43 29.5563 97.9686 27.7063C96.2628 30.6135 94.2508 32.992 92.3263 34.842C90.1831 37.0003 85.8093 38.0134 85.8093 38.0134C82.6601 42.1979 83.5786 54.9275 93.9447 56.8656C100.156 58.0549 99.2808 50.9633 97.3126 46.4705C96.394 44.3562 96.4378 43.1669 96.7002 42.0657C97.7062 38.1015 99.4558 36.3396 101.774 35.1063C103.086 34.5777 104.311 34.5337 105.361 34.6218C107.722 34.886 109.997 33.7849 111.178 31.7146L114.808 25.3719C116.077 23.0373 116.12 20.3064 115.202 18.016Z" fill="#FFE3CA"/>
<path d="M138.209 186.188L137.815 202.177L140.702 206.186L148.575 211.692L147.394 203.895L144.507 201.825L144.638 185.043L138.209 186.188Z" fill="#FCD2B1"/>
<path d="M78.6798 98.1378L82.0477 108.181L88.7398 109.458L142.888 116.505C142.888 116.505 147.831 115.228 150.499 123.553C154.26 135.402 145.906 200.107 145.906 200.107L137.858 199.49L135.89 137.384C135.89 137.384 83.1412 143.771 68.3575 137.956C62.6714 135.71 58.8661 124.654 60.3095 113.863C61.4467 105.362 67.264 97.8735 67.264 97.8735L78.6798 98.1378Z" fill="#0E538C"/>
<path d="M104.048 96.2438C104.53 81.7522 103.48 44.0919 96.8316 44.0919C96.1755 44.0919 95.5631 44.2681 95.0383 44.6205C92.9825 44.18 89.7021 41.8014 86.8154 37.7491H86.7716C86.7716 37.7491 75.9682 40.5241 71.9004 42.2419C69.1012 43.4312 68.7075 81.8844 68.3576 83.9106C67.1329 91.1343 63.8088 99.283 61.6656 104.921C59.9598 109.414 59.916 117.651 59.916 117.651C59.916 117.651 67.964 111.352 77.2803 109.678C81.523 108.709 95.9568 110.075 96.9628 110.603C97.8813 111.088 96.7441 105.89 96.6129 103.512C97.6189 105.053 99.937 105.758 102.08 106.375C108.16 108.092 134.841 113.202 134.841 113.202L139.433 111.528L104.048 96.2438Z" fill="#2A94F4"/>
<path d="M102.299 100.164C109.384 101.618 110.784 106.419 113.365 108.048C115.989 109.678 119.444 111.044 119.444 111C120.538 110.251 116.995 108.092 116.033 106.903C115.07 105.714 115.508 105.362 117.782 106.595C119.969 107.784 120.931 110.251 122.506 111.969C123.862 113.466 124.387 112.365 124.387 112.365C124.387 112.365 124.474 108.313 122.506 105.89C120.144 102.939 115.595 101.485 114.808 101.001C113.408 100.12 108.728 99.0188 105.273 98.7545C101.38 98.4461 97.225 99.1509 102.299 100.164Z" fill="#FCD2B1"/>
<path d="M73.2125 89.2843L79.1609 55.0597C79.1609 55.0597 81.1729 47.1312 79.2047 44.5324C76.8428 41.4491 72.0315 42.0217 72.0315 42.0217C72.0315 42.0217 66.258 45.105 64.3335 72.7666C62.9776 91.7069 62.0591 97.345 69.7134 98.6664C76.8865 99.8997 107.11 103.556 107.11 103.556L108.816 98.6664L73.2125 89.2843Z" fill="#2A94F4"/>
<path d="M115.945 111.66L163.358 114.611L163.402 113.598L115.989 110.647L115.945 111.66Z" fill="#CCE9FF"/>
<path d="M136.896 111.881C136.853 112.673 137.377 113.334 138.034 113.378L162.352 114.92C163.008 114.964 163.927 114.523 164.845 112.541L178.142 90.0772C178.186 89.0641 177.486 88.4034 176.83 88.5355L151.855 87.7867C151.199 87.9189 150.63 88.4034 150.193 89.4605L136.896 111.881Z" fill="#CCE9FF"/>
<path d="M139.783 113.158H139.521L115.771 111.66C116.602 112.189 118.001 112.585 119.62 112.673L139.477 113.907H139.739L159.597 115.14C161.215 115.228 162.658 115.008 163.533 114.611L139.783 113.158Z" fill="#B1DFFC"/>
<path d="M106.367 11.7172C106.541 11.7613 114.896 3.17204 104.967 0.529205C96.569 -1.7172 93.3761 9.82318 106.367 11.7172Z" fill="#0E538C"/>
<path d="M137.815 202.177C137.815 202.177 138.777 204.644 147.394 203.895C147.394 203.895 150.718 207.199 155.135 206.846C159.553 206.494 159.859 210.59 159.859 210.59L159.903 213.145L135.978 211.736V204.071C135.978 203.014 136.809 202.177 137.815 202.177ZM177.88 203.146C177.88 203.146 179.367 205.349 187.633 202.75C187.633 202.75 191.57 205.261 195.812 203.983C200.055 202.662 201.236 206.626 201.236 206.626L201.805 209.137L178.142 212.837L176.524 205.349C176.261 204.336 176.917 203.367 177.88 203.146Z" fill="#1C4454"/>
<path opacity="0.1" d="M73.2125 89.2843L79.1609 55.0596C79.1609 55.0596 81.1729 47.1312 79.2047 44.5324C76.8428 41.4491 72.0315 42.0217 72.0315 42.0217C72.0315 42.0217 66.258 45.105 64.3335 72.7666C62.9776 91.7069 62.0591 97.3449 69.7134 98.6664C76.8865 99.8997 107.11 103.556 107.11 103.556L108.816 98.6664L73.2125 89.2843Z" fill="#F7F7F7"/>
</g>
<defs>
<clipPath id="clip0_70_73">
<rect width="770" height="215" fill="white"/>
</clipPath>
</defs>
</svg>
