<svg width="76" height="90" viewBox="0 0 76 90" fill="none" xmlns="http://www.w3.org/2000/svg">
<path d="M43.8119 38.1819H43.624L43.7555 38.2759L43.8119 38.1819ZM30.9561 35.6822L30.6553 35.7949L30.3922 35.9641L30.7682 35.8701L31.0876 35.7198L31.4447 35.5882L31.9146 35.4567L32.3281 35.2499H32.6288H32.9483L33.3054 35.1371L33.6626 35.0432H34.0573L33.7566 35.1935L33.8881 35.3063L33.6626 35.5318L33.9445 35.8325L34.2452 35.6258L34.6399 35.5318L34.9594 35.3251H35.3165L35.5984 35.0995H35.1849L34.8091 35.2311H34.9782H34.7151L34.5836 35.0432H34.6963H34.3956L34.7339 34.9304H35.091L35.4105 34.8176H35.1662H34.8842H35.091L34.6963 34.9492H34.3016H34.0009H33.7941L33.4558 35.0619L33.7941 34.686L34.1324 34.5733H34.5084H34.7903H35.0534H35.3729H35.6925H36.8953H37.2336H37.5531H38.0042H38.3426H38.662H38.2862H37.9103H37.5531H37.8539H38.117H38.4741H38.7748H39.0755H39.3951H39.7146L40.0341 34.6672H40.3348H40.6543L40.9926 34.7612H41.3497L41.6693 34.9304L41.97 35.1183H42.2707L42.5526 35.2687L42.8534 35.3627L43.1541 35.4754L43.436 35.6258H43.7555H44.075L44.3946 35.7762L44.0187 35.4942L44.3381 35.607L44.6013 35.7949L44.902 35.9453L44.7704 35.7762L44.4697 35.6446L44.1878 35.4754L43.8683 35.3627L43.5863 35.2123H43.2669L42.9849 35.0432L42.6842 34.9304L42.3835 34.8176H42.064L41.7632 34.6672L41.3122 34.686H40.9926L40.6731 34.5733H40.3536H40.0341H39.6958H39.3763H39.0567H38.0606H37.7411H37.5531H37.2148H36.8953H36.2187H35.8992H35.5609H35.2413H34.903H34.5836H34.264H33.9257H33.6438L33.3431 34.686L33.0235 34.7988H32.7416H33.0235H33.3054L32.986 34.968H33.1363L32.8168 35.0807L32.4973 35.2123H32.1778H31.8394L32.1213 35.0432L31.8582 35.1559H31.5575L31.2568 35.2687L30.9561 35.4003L30.693 35.5694L30.3922 35.7574L30.7305 35.607L30.9561 35.6822ZM33.8317 34.8176H34.0385L33.8317 34.9304V34.8176ZM36.9705 34.3665H37.1772H37.5343H36.9705ZM35.091 34.4793H35.6736H35.9368H35.6736H35.8616H35.4669H35.0722H35.091ZM51.8938 57.5221L52.0254 57.1837L51.7998 57.4657L51.5931 57.7476L51.3863 58.0295L51.1984 58.3114L51.0856 58.6498H50.9164L50.7473 58.8753L50.5594 59.1196L50.4278 59.4016L50.2962 59.6835L49.9955 59.909L49.8263 60.2285L49.6196 60.4917L49.3564 60.6984L49.1309 60.9428L48.8866 61.1683L48.6235 61.375L48.3415 61.563L48.0972 61.7885L47.8716 62.0517L47.7401 62.3524V62.484L47.5709 62.8223L47.3642 63.1042L47.0823 63.3673H47.2514L47.5145 63.1794L47.6273 63.0666L47.8904 62.8411C49.5172 61.4605 50.8581 59.7748 51.8374 57.8792V57.7476L51.6683 57.9543L51.8938 57.5221ZM33.0987 62.4464H32.798L32.61 62.7283L32.3845 62.9538H32.0086L31.7267 63.3109L31.8958 63.6868H31.6891V64.0252L31.8958 64.2507L32.1778 64.401H32.4973H32.8168L32.986 64.2319L32.8544 64.0439L33.0423 63.856L33.2867 63.7056V63.3861V63.0854L33.0611 62.8035L33.0987 62.4464ZM52.5892 56.3568L52.4201 56.6575L52.2885 56.9582L52.1945 57.2777V57.5784L52.2885 57.4093L52.5516 56.8454V56.5447L52.6456 56.3192L52.7584 56.0936L52.5892 56.3568ZM47.6085 59.6835L47.7589 59.4016L47.9468 59.1384L47.7777 58.8189L47.4581 58.631L47.2138 58.3866L47.3642 58.2175L47.5709 58.0671V57.7288L47.4017 57.4281L46.9507 57.2401H46.6875L46.4432 57.0898V56.7139V56.3192L46.7063 56.056L47.0071 56.244L47.3266 56.3756L47.6837 56.4695L47.9656 56.244L48.1536 55.9245L48.3791 55.6238L48.4919 55.2854V54.9847V54.7028V54.4209L48.1536 54.1953L47.7965 54.0074V53.6879L47.9092 53.3871L48.0408 53.0676H48.5106L48.7362 52.8233L48.9054 52.5414L49.1309 52.297L49.3564 52.0527V51.7144L49.5632 51.4137L49.676 51.0566L49.7888 50.7182V49.3086L49.5632 49.0831L49.3189 48.8951L49.0933 48.6696L48.9993 48.3689L48.8866 48.0869L49.0182 47.7862L48.661 47.6546H48.2851L48.4167 47.26L48.6986 47.1472L48.9241 46.9968L49.1685 47.1284H49.3753L49.582 47.4855L49.8451 47.7674L50.1459 47.4291L50.0519 47.1284L49.8827 46.8465L49.6947 46.5833L49.488 46.3014V46.0947V45.7563L49.3189 45.4368V45.1173L49.5256 45.0045V44.6474V44.2903V43.9708L49.3753 43.5761V43.2754L49.2249 42.9935L49.0557 42.7303L48.9241 42.486L49.1685 42.6364L49.3564 42.8995L49.5256 43.1438L49.7888 43.2754V43.0123L49.582 42.8243L49.4316 42.5612L49.2625 42.3168L48.8302 42.2041L48.6235 41.9785L48.3603 41.847V42.1665H48.022L47.9092 42.4108L47.6837 42.1477L47.4769 41.8658V41.5087V41.1703V40.832V40.4937V40.1554H47.6461L47.4581 39.8735L47.3078 39.5916V39.2908L47.0823 38.9337L47.3266 39.1405L47.4958 39.4224L47.7025 39.6855L47.9092 39.9299L48.0972 40.193L48.3415 40.4185L48.755 40.6441L49.1685 40.8132L48.8302 40.3246L48.6047 40.0426L48.2475 39.7231L48.022 39.4976L47.7777 39.272L47.5709 39.0277L47.289 38.821L47.0823 38.539L46.8943 38.2571L46.6875 37.9752L46.4432 37.7309L46.2553 37.4301L45.9921 37.1858L45.6726 37.0542L45.3719 36.9039L45.1464 36.6783L44.8832 36.4716L44.6577 36.2836V36.6219L44.7516 36.9414L44.902 37.2234L45.1839 37.4677L45.0336 37.8248L44.8456 37.9564V38.1443H44.6765V38.2947H44.451L44.2442 38.5014V38.6706L44.075 38.9713V39.3096L43.9435 39.6291H43.5863H43.2292L42.9661 39.8359L42.6654 40.0051H42.4586L42.3083 40.2682L42.0828 40.3997L41.9888 40.1366V39.8547H41.7068H41.4249H41.1242L40.8987 40.287H40.5227H40.1092L39.9213 40.6441L39.5642 40.832V41.114L39.3763 41.3207H39.2635L39.489 41.5462H39.1695H38.8312H38.5117V41.7718V42.0161L38.2862 41.6778L38.117 41.2831L37.8727 41.6026V41.9785L37.7411 42.3168H37.4404L37.1585 42.1853H36.8577L36.5758 42.2981H36.2563H35.9556H35.2038L34.8278 42.392L34.5272 42.1477L34.3016 42.5612H33.7941H33.5122L33.2115 42.6927H32.9108L32.7228 42.4484V42.1477L32.8919 42.0161L33.1927 42.2229H33.531H33.8881V41.8846L33.6626 41.6966L33.4558 41.4711L33.2115 41.2643L32.9296 41.114L32.7604 40.7381L32.4597 40.6253H32.1213H31.8394L31.5763 40.7381H31.2944L30.8809 40.8884H30.5426L30.2231 41.0388L29.9035 41.1891H29.5841H29.2833L29.0202 41.4335L28.7571 41.6778L28.6255 41.9973L28.9074 42.3732V42.6552V42.9559V43.2378L29.1706 43.4633L29.5277 43.313L29.8472 43.125L30.1103 42.8807H30.0351V42.6176L30.1479 42.2981L30.4486 42.1101L30.7493 41.9785L31.0688 41.8658H31.3884L31.1816 42.0725L30.8997 42.2041L30.6366 42.3168L30.505 42.7491L30.5989 43.0311L30.4674 43.313L30.2418 43.5385H29.9599L29.7344 43.7453L29.5652 43.9896H29.1893H28.8322L28.5879 43.8393L28.3811 43.6325L28.1932 43.4446L28.4563 43.3318V43.0123L28.5879 42.6927L28.3248 42.9183L28.0804 43.1438L27.8173 43.3694L27.6482 43.2378H27.385L27.1407 43.125L26.8399 43.2566L26.558 43.4446H26.2761L26.0694 43.313H25.825L25.6935 43.6325V43.9332L25.5243 44.2151L25.28 44.4219L24.9417 44.1963L24.7161 43.8205L24.4342 44.1024L24.1523 44.3467L24.0019 44.591V44.873L23.8892 45.1361L23.9831 45.4932V45.8691L24.2463 45.9819H24.5094L24.7913 45.8127L25.0168 45.5684H25.2988L25.7123 45.3428L25.9378 45.512H26.2009L26.4453 45.606V45.9255V46.245V46.5645L26.6144 46.8653L26.7648 47.1848L26.652 47.4855V47.805L26.8776 47.5983L27.1031 47.3351V47.4667V47.1096V46.8653L27.0091 46.6209L26.8587 46.245L26.9715 45.8127L27.2159 46.0571L27.3098 46.4142L27.479 46.7713L27.5918 47.1848L27.3098 47.3539V47.6546L27.4038 47.9554V48.3313V48.7448L27.6482 48.8763L27.8549 49.0079V48.6696H28.0053V47.9742L28.2684 47.8238L28.5503 48.0493H28.9074L28.6443 48.2561V48.5756V48.8951V49.7221L28.9262 49.8537L29.1893 49.9852L29.4713 50.1168L29.7532 50.2672H30.0727V50.6243L29.9787 50.9626L29.678 51.1693L29.49 51.3761L29.2457 51.2633L28.7758 51.1693H28.4L28.1368 50.9814L27.8925 50.7746L27.6482 50.5115L27.3662 50.286L27.0843 50.0604H26.8212L26.5016 50.3987L26.2949 50.1544L26.1258 49.8913L25.9566 49.5905V49.2522L25.6746 49.0831L25.5431 48.7635L25.6371 48.4065V48.0681V47.711L25.3739 47.5231L25.0732 47.3539L24.8289 47.1284L24.5657 46.9028H24.2463H23.9643V46.4518L23.5884 46.6397H23.1937L22.987 46.9404L22.7051 47.1848H22.3479L22.0472 47.4667L21.8969 47.8238L21.7653 48.1997L21.6525 48.5004L21.521 48.8199L21.427 49.1395V49.4778V49.7973V50.4363V50.7558V51.0753V51.5076V51.8647V52.2031L21.5398 52.5414V52.8797V53.218L21.6901 53.5375L21.9344 53.7818L22.1036 54.1201L22.3668 54.4021L22.7238 54.5149L22.8742 54.7592L23.0058 55.0223L23.1561 55.2666L23.4193 55.511L23.626 55.8117L23.7576 56.1124V56.4883V56.8454L23.8703 57.2213L24.0583 57.5409L24.1711 57.8604L24.3402 58.1611V58.4806L24.5094 58.7813L24.6973 59.0633L24.904 59.3264V59.6083V59.8902L24.8101 60.0594L24.9229 60.3789V60.7548L25.1672 60.9803L25.4115 61.1871L25.5995 61.4502L25.7874 61.7134L25.9754 61.9577L26.1822 62.2208L26.3701 62.484L26.5956 62.7095L26.8212 62.935C27.3717 63.409 27.9559 63.8424 28.5691 64.2319H28.7007L28.9638 64.3447H29.2269H29.5089L29.8284 64.1191L29.7344 63.762L29.9412 63.5177L29.8472 63.3109V63.0666L30.0351 62.8787H30.3358H30.6553L30.8433 62.6155L30.693 62.296L30.5989 61.9577V61.6194L30.4298 61.3187V60.9616L30.2795 60.642L30.5426 60.3601L30.8433 60.1722L31.2004 60.0406L31.4636 59.7963L31.7455 59.5519L32.0838 59.3828L32.4409 59.27L32.7416 59.0633L32.8356 58.7249L33.0235 58.4242L33.2115 58.1235L33.4746 57.9168V57.5972L33.2491 57.4657L33.0235 57.3529H32.6664H32.3093H31.9522H31.5763L31.332 57.0898V56.8266H31.6891H32.0274H32.3657H32.6852H33.0423L33.3806 56.7327L33.6814 56.6011L33.9633 56.4131H34.4707H34.7527H35.0534L35.2226 56.1312L35.3729 55.8493L35.5984 55.5862L35.7864 55.3418V55.0787L35.6925 54.778L35.4105 54.5149L35.2226 54.1953H35.5609L35.8428 54.3457H36.1435L36.4067 54.4961L36.6886 54.3833H37.0081H37.3464H37.6471V54.5149L37.8727 54.7028L38.1546 54.8156L38.3613 55.0411L38.6432 55.3418L38.944 55.605H39.2071L39.3575 55.8117L39.5454 56.0184V56.338V56.977L39.7334 57.1649L39.9589 57.3341V57.6912L40.1281 57.9168L40.2972 58.1423L40.4476 58.3678L40.6731 58.4994L40.8235 58.7061L41.049 58.4618L41.3122 58.2739L41.4625 57.9731L41.6505 57.71V57.3905V56.7515L41.8384 56.4507L42.1016 56.2252L42.4022 56.0372L42.7218 55.9057L42.9661 55.4546L43.3232 55.2666L43.5112 54.9471L43.8307 54.7592L44.1502 54.6276H44.5449L44.808 54.8156L45.0336 55.0787L45.1651 55.3794L45.3719 55.6426H45.729H46.0861L46.3117 55.9057V56.244V56.5823V56.9018V57.2401L46.4432 57.5409L46.7251 57.71V58.0671L46.8567 58.3866L46.6124 58.2363H46.3117H46.0109H45.7102V58.4054L46.0109 58.6686L46.4056 58.8001L46.3117 59.0633L46.6124 59.2324V59.4955L46.7063 59.7399H47.0071H47.3266L47.6085 59.6835ZM28.6631 59.4204L28.4 59.0445L28.6067 59.1384V59.1196L28.8135 59.2888L28.6631 59.4204ZM30.7493 56.0936L30.5426 55.6426L30.317 55.3982L30.1479 55.1351L29.9787 54.8344V54.5149L30.1667 54.2141L30.0163 53.9322L29.7156 53.8194V53.5187V53.2368L29.6028 52.9549V52.6353V52.3346H29.866L30.1291 52.5226L30.2795 52.7857V53.1428V53.4811L30.3922 53.8194L30.5238 54.1201L30.6741 54.4209L30.8809 54.684L31.0688 54.9471L31.2192 55.3418V55.9809L31.3132 56.2816L30.7493 56.0936ZM31.8958 49.0455H31.4636L31.1628 48.8951H30.8433L30.5989 48.6884H30.2983H29.9599H29.6216H29.2833L29.49 48.4816L29.6404 48.1809L29.7532 47.899L29.9412 47.6358H30.0351H30.2418L30.3734 47.8614L30.4674 48.1057L30.2795 48.2185L30.5802 48.5004L31.0124 48.3313L30.6366 48.1245L30.8621 47.9178H31.1816H31.4636V48.1809L31.2192 48.3877L31.4259 48.6132L31.6327 48.8387L31.8019 49.0831L31.8958 49.0455ZM33.6626 48.5568L33.7566 48.3125L34.1137 48.1809H34.4143H34.6399L34.3768 48.4252L34.076 48.5756V49.0831L34.2076 49.365V49.6657V49.9664V50.2672V50.5867H33.9445H33.6062L33.4746 50.2484L33.3431 49.91L33.5874 49.7221L33.4558 49.4026L33.3618 49.0831V48.7635L33.6626 48.5568ZM34.5084 54.1953H34.2076L33.9257 54.0826L33.7377 53.8382L33.5686 53.5939L33.3618 53.3308L33.2303 53.0488L33.0047 52.8233H33.2115H33.4558L33.5686 53.1052L33.6814 53.3683L33.8881 53.5939L34.0573 53.8194H34.4143L34.7339 53.9322L34.5084 54.1953ZM43.342 38.6706L43.7555 38.8022V38.4451H43.3984L43.342 38.6706ZM26.1258 46.6209H25.9378V47.1472L26.1258 46.8465V46.6209ZM28.0053 49.7785H28.1556L28.024 49.5342L28.0053 49.7785ZM26.2761 48.0493V48.3313L26.5393 48.1057V47.805H26.2761V47.5983L26.1633 47.805L26.2761 48.0493ZM26.2761 46.1698V46.3578H26.3701L26.2761 46.1698ZM51.6683 56.4131L51.8374 56.2252L51.9314 55.9621L51.6494 56.2628L51.6683 56.4131ZM50.7473 47.3163H50.5217V47.6546H50.8225L50.7473 47.3163ZM50.315 53.3308L50.6721 53.5187L51.0668 53.312L50.8977 52.9924L50.7285 52.6729L50.8225 52.4286V52.1655H50.5405V52.5414V52.8985L50.315 53.3308ZM50.315 54.7404L50.4842 54.4585L50.2022 54.6088L50.1082 54.9659L50.315 54.7404ZM50.9729 53.8382H50.86V54.0638L51.0104 54.1953L50.9729 53.8382ZM50.7097 45.2677V45.5872V46.2262L50.5969 46.5457V46.8465V47.1848H50.9164L51.142 46.978V46.6585V46.3578V46.0571V45.7188V45.3992L50.9729 45.0985L50.86 44.7978L50.7097 44.4595L50.5969 44.591L50.7285 44.9482L50.7097 45.2677ZM48.5858 59.3264H48.21H47.8341L47.6085 59.6083H48.1723H48.4355H48.7926L49.1121 59.4391L49.3564 59.1572H48.8866L48.5858 59.3264ZM48.3791 53.2932L48.2287 53.5563L48.5295 53.7067V53.4811V53.2368L48.3791 53.2932ZM50.0519 50.6807V50.9814V51.3197H50.1646V50.9626V50.6243L50.0519 50.6807ZM41.6881 57.8416H41.4061L41.237 58.0859V58.3678L41.3874 58.631V58.7437H41.7632V58.4242V58.1235L41.6881 57.8416ZM50.0143 44.046L50.1646 44.3091L50.2774 44.0836V43.8017V43.5197L50.0331 43.3882H49.7511L49.8827 43.6889L50.0143 44.046ZM53.0215 54.2705L52.8335 54.5712L52.6456 54.8907L52.514 55.2666L52.3073 55.0787L52.1381 55.3042L52.0441 55.605L52.1757 55.9057L52.5328 55.6614V55.8493L52.702 55.511L52.8335 55.1727L52.9463 54.9471L53.0591 54.59V54.4773V54.1014L53.0215 54.2705ZM51.142 54.684L51.4239 54.7968V54.4585V54.1201V53.8006L51.2548 54.1389L51.1232 54.4961L50.8977 54.8156L51.142 54.684ZM50.4465 58.443L50.5594 58.1987L50.3338 58.349L50.1646 58.5934L50.0519 58.8377L50.2398 58.631L50.4465 58.443ZM40.5604 39.8547H40.8987L40.4476 39.7043L40.5604 39.8547ZM49.6947 57.9356L49.8451 57.6724L49.9391 57.3529L50.0707 57.071L50.221 56.7703V56.4507L50.1271 56.15L50.2962 55.9245L50.4278 55.6801L50.1834 55.511H49.9015V55.8305L49.7324 56.1312L49.5632 56.4319L49.3001 56.8078L49.1309 57.0522L48.8678 57.2401L48.661 57.4469L48.4731 57.6912V57.9731L48.6422 58.2551L48.9805 58.349H49.3001H49.6384L49.6947 57.9356ZM33.5122 39.2908V38.9713H33.2115L32.9483 39.1029L32.7416 39.3284V39.6291H33.1551L33.531 39.4788L33.6438 39.5916L34.0949 39.46L33.8129 39.2532L33.5122 39.2908ZM29.2645 36.6031L29.0014 36.7911L28.7194 36.9414L28.4939 37.167L28.1556 37.4113L27.9676 37.7684L28.2684 37.6557L28.4939 37.5053H28.7758V37.6557L29.1142 37.7684L29.2645 38.0504V38.3511H29.5652H29.866L30.1103 38.1443H30.411H30.6741L31.0501 37.994H31.3132H31.5575H31.8958H32.2154H32.5161V37.7496V37.5241L32.8356 37.3362V36.9602L33.1551 36.6031H33.0235L33.2115 36.2272H32.9483L33.1175 36.0581V35.8137H33.3054H33.0047H32.704L32.4221 35.9453L32.1402 36.0581V36.1897L31.8394 36.3024L31.5575 36.434H31.2568L30.9749 36.5656L30.5989 36.7159V36.6219L30.2983 36.7535L30.0351 36.9039H29.9412H29.6404L29.3397 37.0354L29.2645 36.6031ZM28.2496 38.9901L28.0804 39.2532V39.554H28.6255L28.7946 39.1593L28.4939 38.7834L28.2496 38.9901ZM38.1734 34.2726H37.8163H37.4404H37.8163H38.1734ZM36.651 41.1891H36.9705L37.2336 41.0012H37.5531V40.832L37.2148 40.7381H36.8766L36.5946 40.9072H36.2563L35.9556 41.0952L35.7864 41.4147L35.6548 41.7342L35.8804 41.8658L36.1059 42.0161L36.2187 41.8658V41.565L36.4442 41.3207L36.651 41.1891ZM40.0341 39.3096H39.771V39.6855H40.3912L40.2408 39.46L40.0341 39.3096ZM51.6683 55.3606V55.6426V55.8869V55.3606ZM28.3436 36.7347L28.6631 36.5656L28.9638 36.3588L29.3021 36.2272L29.6216 36.0581L29.772 35.8325L29.4713 36.0017H29.3585C28.8176 36.3135 28.2965 36.6588 27.7985 37.0354L28.0617 36.9039L28.3436 36.7347ZM50.9916 56.0372L50.6345 56.2064L50.4842 56.5259L50.315 56.7891L50.221 57.1086V57.4281V57.71L50.503 57.5972L50.7097 57.3153L50.8036 56.977V56.6575H50.6721L50.8788 56.3944L51.0856 56.1124L51.2548 55.7741L50.9916 56.0372ZM26.2761 42.486L26.558 42.3732L26.7836 42.1665L26.8776 41.8658L26.558 41.9597L26.2761 42.2041L26.0129 42.3732V42.5988L26.2761 42.486ZM50.7097 58.4618L50.9352 58.1235L51.1232 57.7852L50.8977 58.1235L50.7097 58.4618ZM26.8776 42.5612L26.5768 42.7303L26.3137 42.9559L26.0694 43.1814V43.4821H26.4641H26.8587L27.0467 43.1626V42.8055L27.197 42.486L27.4602 42.2605L27.6482 41.9597L27.7421 41.6026L27.479 41.7154L27.2347 41.8282V42.1289L26.9903 42.3544L26.8776 42.5612ZM26.8776 37.994L26.5956 38.2947L26.8963 38.0128L26.8776 37.994Z" fill="white"/>
<path d="M24.1148 78.2155C24.1148 78.2155 12.0672 71.5432 13.0069 61.0556C12.4129 63.3718 12.6387 65.8223 13.646 67.991C13.646 67.991 7.80068 65.7919 12.8566 57.0146C12.8566 57.0146 19.3784 61.5443 14.7361 68.0474C15.8925 70.3135 17.69 72.1894 19.9047 73.4415C21.6971 74.5007 23.4231 75.6681 25.0733 76.9374C25.1031 77.0867 25.1007 77.2407 25.0662 77.389C25.0318 77.5373 24.9662 77.6765 24.8737 77.7975C24.7812 77.9184 24.664 78.0182 24.5299 78.0903C24.3958 78.1624 24.2479 78.2051 24.096 78.2155" fill="white"/>
<path d="M14.8865 70.9417C13.3988 72.6581 11.3012 73.7279 9.03835 73.9243C6.77545 74.1208 4.52495 73.4285 2.76367 71.9943C2.76367 71.9943 8.40223 66.5813 14.1347 69.6073C12.3256 69.6342 10.5411 70.0307 8.89088 70.7726C10.8717 70.3226 12.9342 70.3808 14.8865 70.9417Z" fill="white"/>
<path d="M17.8564 70.6974C17.6038 70.1071 17.4781 69.4703 17.4873 68.8282C17.4965 68.1862 17.6403 67.5532 17.9096 66.9703C18.1789 66.3874 18.5677 65.8675 19.0506 65.4444C19.5336 65.0212 20.1 64.7042 20.7133 64.5139C20.7133 64.5139 21.3899 70.3215 17.8564 70.6974Z" fill="white"/>
<path d="M37.6844 31.1902C36.7446 29.8182 30.4483 17.2819 0.000244141 19.4245V72.2763C0.000244141 72.2763 0.695682 84.5871 12.1795 84.5871C23.6633 84.5871 32.215 83.8916 37.5904 90C37.5904 90 43.2289 84.681 50.1267 84.775C57.0245 84.869 63.1893 84.775 63.1893 84.775C63.1893 84.775 75.3685 84.042 75.3685 71.3553V19.4245C44.9205 17.2819 38.6241 29.8182 37.6844 31.1902Z" fill="#0592D5"/>
<g opacity="0.5">
<g opacity="0.5">
<g opacity="0.5">
<path opacity="0.5" d="M75.3682 33.9906V0.159495C44.9202 -1.98314 38.6239 18.1464 37.6841 19.5184C36.7444 18.1464 30.448 -1.98314 0 0.159495V33.9906" fill="#A2ABB0"/>
</g>
</g>
</g>
<path d="M75.3685 34.6861V5.15906C44.9205 3.01643 38.6241 23.2211 37.6844 24.5932C36.7446 23.2211 30.4483 3.01643 0.000244141 5.15906V34.6861" fill="white"/>
<path d="M75.3685 35.6258V10.5719C44.9205 8.42931 38.6241 26.9425 37.6844 28.3145C36.7446 26.9425 30.4483 8.42931 0.000244141 10.5719V35.6258" fill="#E33625"/>
<path d="M75.3685 33.9907V16.173C44.9205 14.0303 38.6241 28.4274 37.6844 29.7994C36.7446 28.4274 30.4483 14.0303 0.000244141 16.173V33.9907" fill="white"/>
<path d="M75.3685 40.0051V21.2101C44.9205 19.0674 38.6241 29.7806 37.6844 31.1527C36.7446 29.7806 30.4483 19.0674 0.000244141 21.2101V40.0051" fill="#0592D5"/>
<path d="M44.5446 38.633H44.3567H44.5071H44.5446ZM31.6888 36.1332L31.4069 36.246L31.1249 36.4339L31.5008 36.34L31.8391 36.1708L32.1775 36.0392L32.6474 35.9265L33.0796 35.7009H33.3804H33.6811L34.0382 35.5694H34.3953H34.79L34.5081 35.7197L34.6208 35.8513L34.3953 36.058L34.6772 36.3588L34.9968 36.1708L35.3726 36.0768L35.6922 35.8513H36.0493L36.3499 35.6258H35.9177L35.5606 35.7573H35.7109H35.4478L35.3162 35.5506H35.429H35.1471L35.4666 35.4378H35.8237L36.1432 35.325H35.8989H35.6358H35.8237L35.429 35.4378H35.0343H34.7336H34.4517L34.1321 35.5506L34.3953 35.419H34.7336H35.1095H35.3914H35.6545H35.9741H36.2936H37.5529H37.91H38.2295H38.6806H39.0001H39.3384H38.9625H38.5866H38.2107H38.5114H38.7933H39.0564H39.3572H39.6579H39.9774H40.2969H40.6165H40.9172H41.2367L41.575 35.513H41.9321L42.2516 35.6821L42.5712 35.8701L42.8718 35.9641L43.135 36.1332H43.4357L43.7365 36.2648L44.0184 36.3964H44.3379H44.6762L44.9957 36.5279L44.601 36.246L44.9206 36.3776L45.1837 36.5467L45.4844 36.6971L45.3528 36.5279L45.0521 36.3964L44.7702 36.246L44.4694 36.1332L44.1687 35.9829L43.868 35.8701L43.5673 35.7197L43.2666 35.5882L42.9659 35.4754H42.6463L42.3456 35.325H42.0261H41.7066L41.3871 35.2123H41.0675H40.748H40.4285H40.0902H39.7707H38.7933H38.455H38.1167H37.7972H37.4589H36.8011L36.4628 35.3062H36.1432H35.8049H35.4666H35.1471H34.8276H34.4893H34.2073L33.9254 35.4378H33.6059H33.3052H33.5871H33.8878L33.5495 35.607H33.7938H33.4556L33.136 35.7385L32.8165 35.8513H32.497L32.7601 35.6633L32.497 35.7761H32.1963L31.8955 35.9077L31.6136 36.0392L31.3317 36.2084L31.031 36.3776L31.3881 36.2272L31.6888 36.1332ZM34.5833 35.2686H34.79H34.5645H34.5833ZM37.7032 34.8176H37.5529H37.2521H37.9664H38.3047H37.7408H37.7032ZM35.8237 34.9491H36.5003H36.7447H36.3499H36.5379H36.162H35.7486H35.8237ZM52.5889 57.9919L52.7393 57.6536L52.495 57.9167L52.2882 58.1986L52.1002 58.4806L51.9123 58.7813L51.7807 59.1196H51.6116L51.4424 59.3451L51.2545 59.5895L51.1229 59.8526L51.0101 60.1345L50.6906 60.3601L50.5214 60.6796L50.3147 60.9615L50.0704 61.1682L49.826 61.4126L49.5817 61.6381L49.3186 61.8449L49.0366 62.0328L48.7923 62.2584L48.5856 62.5027L48.4352 62.8034V62.9538L48.2848 63.2733L48.0593 63.574L47.7962 63.8372L47.9465 63.7244L48.2097 63.5364L48.3225 63.4237L48.5856 63.2169C50.217 61.836 51.564 60.1507 52.5513 58.255V58.1235L52.401 58.3302L52.5889 57.9919ZM33.7938 62.8786H33.4931L33.3052 63.1417L33.0984 63.3673H32.7038L32.4218 63.7432L32.6097 64.1003H32.3842V64.4198L32.5909 64.6453L32.8729 64.8145H33.1924H33.5119L33.6811 64.6265L33.5495 64.4386L33.7375 64.2507L33.9818 64.1003V63.7996V63.4988L33.775 63.1981L33.7938 62.8786ZM53.1716 56.789L53.0212 57.0709L52.8896 57.3716L52.7769 57.6912V57.9919L52.8708 57.8227C52.8708 57.6536 53.04 57.4656 53.1152 57.2589V56.977L53.2279 56.7326L53.322 56.5071L53.1716 56.789ZM48.1909 60.1157L48.36 59.8338L48.5292 59.5707L48.3788 59.2324L48.0405 59.0444L47.7962 58.8001L47.9465 58.6309L48.1721 58.4806L48.0781 58.161L47.909 57.8603L47.7022 57.5972H47.4578L47.2136 57.4468V57.0521V56.6762L47.4767 56.4131L47.7774 56.6011L48.1157 56.7326L48.454 56.8266L48.736 56.5823L48.9427 56.2627L49.1494 55.962L49.2622 55.6237V55.3418V55.0598V54.7779L48.9239 54.5524L48.5667 54.3644V54.0261L48.6796 53.7254L48.8111 53.4059L49.281 53.5187L49.5065 53.2743L49.6757 52.9736L49.9012 52.7293L50.1268 52.5037L50.2207 52.1466L50.4275 51.8459L50.5214 51.5076L50.6342 51.1693V49.7221L50.4275 49.4965L50.1831 49.2898L49.9388 49.083L49.8449 48.7823L49.7508 48.4816L49.8636 48.1997L49.5065 48.0681H49.1306L49.2622 47.6922L49.5441 47.5794L49.7885 47.4291L50.014 47.5606H50.2207L50.4275 47.8989L50.6906 48.1809L50.9913 47.8613L50.8974 47.5418L50.7282 47.2787L50.5591 46.9968L50.3335 46.7336V46.5081V46.1698L50.1643 45.8691V45.5307L50.3523 45.418V45.0609V44.7038V44.403L50.1831 43.9896L50.0892 43.6888L49.9388 43.4257L49.7697 43.1626L49.6569 42.9182L49.8824 43.0686L50.0704 43.3129L50.2395 43.5761L50.5027 43.7076V43.4257L50.2959 43.2378L50.1456 42.9934L49.9764 42.7303L49.7321 42.5423L49.5253 42.298L49.281 42.1852V42.486H48.9427L48.8299 42.7303L48.6232 42.4672L48.4164 42.1852L48.3225 41.8469V41.5086V41.1515L48.2284 40.832V40.4937H48.3976L48.2097 40.2118L48.0593 39.9298V39.6103L47.8526 39.2532L48.0969 39.46L48.2661 39.7607L48.454 40.005L48.6608 40.2681L48.8675 40.5313L49.1118 40.7568L49.5065 40.9635L49.92 41.1515L49.7321 40.8508L49.4877 40.5877L49.1306 40.2493L48.9051 40.0238L48.6796 39.7983L48.454 39.5727L48.1721 39.366L47.9653 39.084L47.7774 38.7833L47.5894 38.5014L47.3451 38.2571L47.1384 37.9751L46.894 37.7308L46.5557 37.5992L46.255 37.4301L46.0295 37.2045L45.7663 36.9978L45.5596 36.8286V37.1482L45.6535 37.4677L45.8039 37.7684L46.067 38.0127L45.9167 38.3698L45.7287 38.5014L45.8227 38.6706H45.6347L45.7287 38.8021H45.5032L45.2776 39.0089V39.178L45.1273 39.4787V39.8358L45.0145 40.1554H44.6386H44.2815L44.0184 40.3433L43.7365 40.5125H43.5109L43.3605 40.7756L43.135 40.926L43.041 40.6628V40.3809H42.7591H42.4772H42.1952L41.9697 40.8132H41.575H41.1615L40.9736 41.1703L40.6165 41.3583V41.6214L40.4285 41.8281H40.3346L40.5413 42.0537H40.2405H39.8834H39.5639V42.298V42.5235L39.3572 42.1852L39.1692 41.7905L38.9249 42.11V42.486L38.8122 42.8431H38.5114L38.2107 42.7115H37.5529L37.2521 42.8243H36.9514H36.6319H35.8801H35.523L35.2035 42.5799L34.9779 42.9934H34.6772H34.3953L34.0946 43.125H33.7938L33.6059 42.8995V42.5799L33.775 42.4484L34.0758 42.6551H34.4141H34.79V42.3168L34.5645 42.1476L34.3765 41.9033L34.1321 41.7154L33.8502 41.565L33.6623 41.1703H33.3615H33.0421H32.7601L32.4782 41.2831H32.2151L31.7828 41.4334H31.4445L31.1437 41.6026L30.8054 41.7342H30.4859H30.1852L29.9221 41.9973L29.6589 42.2228L29.5274 42.5423L29.8093 42.937V43.219L29.7153 43.5009V43.7828L29.9973 44.0084L30.3356 43.858L30.655 43.6888L30.937 43.4445H31.0498V43.1626L31.1625 42.8619L31.4445 42.6551L31.7452 42.5235L32.0647 42.4108H32.3842L32.1775 42.5987L31.8955 42.7303L31.6324 42.8619L31.5008 43.2941L31.6136 43.5573L31.482 43.858L31.2377 44.0647H30.9558L30.7302 44.2715L30.5611 44.5158H30.204H29.8281L29.6025 44.3655L29.377 44.1775L29.189 43.9896L29.471 43.858V43.5385L29.6025 43.2378L29.3394 43.4445L29.1139 43.67L28.8319 43.9144L28.6628 43.764H28.3997H28.1741L27.8546 43.8956L27.5727 44.0647H27.2531L27.0652 43.9332H26.8021L26.6705 44.2339V44.5534L26.5014 44.8165L26.2758 45.0233L25.9375 44.7977L25.6932 44.4406L25.4113 44.7226L25.1293 44.9481L24.979 45.1924V45.4744L24.885 45.7563L24.979 46.0946V46.4893H25.2421H25.5052L25.7684 46.3389L26.0127 46.0758H26.2758L26.6893 45.8691L26.9337 46.0194H27.1968L27.4411 46.1322V46.4329V46.7712L27.5351 47.0907L27.7043 47.3915L27.8358 47.6922L27.723 47.9929V48.3124L27.9486 48.1057L28.1553 47.8425V47.9929V47.617V47.3915V47.1283L27.9862 46.7712L28.0989 46.3389L28.3433 46.5833L28.4561 46.9216L28.6252 47.2975L28.7192 47.6922L28.4561 47.8613V48.1621V48.4628V48.8387V49.2522L28.6816 49.3837L28.8884 49.5153V49.1582H29.0387V48.4628L29.3018 48.3124L29.5838 48.538H29.9596L29.6965 48.7447V49.0642V49.4025V49.7221L29.9785 49.8536L30.2604 49.9852L30.5423 50.1168L30.8054 50.2671H31.1249V50.6242V50.9625L30.8243 51.1881L30.6175 51.3948L30.0348 51.6016L29.5461 51.4888H29.1703L28.9071 51.2821L28.6816 51.0753L28.4372 50.8122L28.1365 50.5866L27.8734 50.3799H27.5915L27.2908 50.737L27.084 50.4739L26.896 50.2107L26.7269 49.9288V49.5905L26.4262 49.4025L26.2946 49.083L26.3886 48.7447V48.3876V48.0493L26.1255 47.8613L25.8248 47.6734L25.5804 47.4479L25.3361 47.2223H24.9978H24.7159V46.7524L24.3399 46.9592H23.9453L23.7385 47.2599L23.4566 47.5042H23.0994L22.7987 47.7674L22.6484 48.1433L22.5168 48.5004L22.404 48.8199L22.2913 49.1206L22.1973 49.4401V49.7784V50.098V50.4175V50.7558V51.0753V51.3948V51.8083V52.1654V52.5225L22.2913 52.842V53.1803V53.5375L22.4604 53.8382L22.7048 54.1013L22.8739 54.4396L23.1183 54.7028L23.4754 54.8343L23.6257 55.0598L23.7573 55.323L23.9264 55.5673L24.1708 55.8305L24.3775 56.1124L24.5091 56.4319V56.789V57.1649L24.6218 57.522L24.8286 57.8415L24.9226 58.1798L25.0917 58.4618L25.1857 58.8001L25.3361 59.1008L25.524 59.3827L25.7307 59.6459V59.9278V60.1909L25.618 60.3601L25.7307 60.6984V60.9991L25.9751 61.2434L26.2194 61.4502L26.4074 61.6945L26.5954 61.9577L26.8021 62.2208L26.99 62.4651L27.178 62.7282L27.4035 62.9538L27.6291 63.1793C28.1767 63.6487 28.7543 64.0819 29.3582 64.4762H29.4898L29.7529 64.589H30.016H30.298L30.6175 64.3446V63.9875L30.8054 63.762V63.5364V63.2921L31.031 63.1605H31.3317H31.6512L31.8391 62.8786L31.6888 62.5779V62.2208L31.576 61.8825L31.4069 61.5817V61.2434L31.2753 60.9051L31.5197 60.642L31.8391 60.4352L32.1775 60.3037L32.4594 60.0781L32.7225 59.815L33.0796 59.6646L33.4179 59.5519L33.7187 59.3451L33.8314 59.0068L34.0006 58.7061L34.2073 58.3866L34.4517 58.1986V57.8791L34.2449 57.7475L34.0194 57.6348H33.6435H33.2864H32.5534L32.309 57.3528V57.1085H32.6661L33.0044 57.0145H33.3428H33.6811H33.7938H34.1321L34.4329 56.883L34.7336 56.695H35.2223L35.5042 56.5823L35.8049 56.4883L35.9741 56.2251L36.1432 55.9244L36.3688 55.6801L36.5567 55.417L36.444 55.1538V54.8531L36.1432 54.59L35.9553 54.2705H36.2936L36.5755 54.4208H36.8763L37.1394 54.5524H37.4401H37.7596H38.0791H38.3798V54.684L38.6054 54.8719L38.8873 54.9847L39.0941 55.2102L39.3948 55.5109L39.6767 55.7741H39.9586L40.109 55.9996L40.2782 56.1876V56.5071V57.1461L40.4849 57.3528L40.7104 57.5032V57.8791L40.8608 58.1047L41.03 58.3302L41.1803 58.5557L41.4246 58.6685L41.5562 58.8753L41.7818 58.6497L42.0637 58.4618L42.1952 58.161L42.3832 57.8979V57.5596V56.9206L42.5524 56.6198L42.8155 56.3943L43.1162 56.2064L43.4545 56.0936L43.6801 55.6425L44.0372 55.4358L44.2439 55.135L44.5446 54.9471L44.8642 54.8155H45.2776L45.5408 55.0223L45.7475 55.2854L45.8979 55.5861L46.0858 55.8493H46.4429H46.8188L47.0256 56.1124V56.4507V56.789V57.1273V57.4468L47.1384 57.7663L47.4203 57.9167V58.2738L47.5519 58.6121L47.3263 58.443H47.0256H46.7249H46.4053L46.3114 58.6309L46.6309 58.8753L47.0256 59.0068L46.9128 59.27L47.2323 59.4391V59.7022L47.3451 59.9466L47.627 60.0593H47.9465L48.1909 60.1157ZM29.2454 59.8338L28.9823 59.4767L29.2078 59.5707V59.4579L29.3958 59.6271L29.2454 59.8338ZM31.3317 56.5259L31.1437 56.056L30.9182 55.8305L30.7302 55.5485L30.5611 55.2666V54.9283L30.7679 54.6464L30.5987 54.3644L30.298 54.2329V53.9321L30.204 53.6502L30.0912 53.3683V53.0676V52.7669H30.3544L30.6175 52.936L30.7679 53.2179V53.5563V53.9134L30.8618 54.2517L31.0122 54.5336L31.1437 54.8343L31.3505 55.0974L31.5384 55.3794L31.6888 55.7741V56.3943L31.7828 56.695L31.3317 56.5259ZM32.4782 49.4777H32.0459L31.764 49.3462H31.4445L31.2001 49.1394H30.8806H30.5423H30.204H29.8657L30.0912 48.9139L30.2228 48.6319L30.3356 48.3312L30.5235 48.0869H30.7679H30.9746L31.1062 48.3124V48.5568L30.937 48.6695L31.2377 48.9515L31.6512 48.8011L31.2753 48.5944L31.5197 48.3876H31.8204H32.1023V48.6319L31.858 48.8575L32.0459 49.083L32.2526 49.2898L32.4406 49.5529L32.4782 49.4777ZM34.2449 48.989L34.3577 48.7259L34.696 48.5944H34.9968H35.241L34.9591 48.8387L34.6584 49.0078V49.4965L34.7712 49.7784L34.8839 50.0792V50.3799V50.6994V51.0001L34.6208 51.0941H34.2637L34.1321 50.7558L34.0194 50.3987L34.2637 50.2107L34.1321 49.8912L34.0194 49.5905V49.2522L34.2449 48.989ZM35.1095 54.6276H34.8088L34.5081 54.5148L34.3201 54.2705L34.151 54.0073L33.9442 53.763L33.7938 53.4811L33.5683 53.2367H33.775H34.0194L34.1321 53.4999L34.2449 53.7818L34.4517 53.9885L34.6208 54.2329H34.9779L35.3162 54.3644L35.1095 54.6276ZM43.9244 39.1028L44.3379 39.2532V38.8961H43.9996L43.9244 39.1028ZM26.7081 47.0719H26.5202V47.617L26.7081 47.2975V47.0719ZM28.5876 50.2107H28.7755L28.6252 49.9476L28.5876 50.2107ZM26.896 48.5192V48.8011L27.1592 48.5568V48.256H26.8773V48.0305L26.7833 48.2372L26.896 48.5192ZM26.896 46.6397V46.8276H26.99L26.896 46.6397ZM52.2882 56.883L52.4762 56.695V56.4319L52.1942 56.7326L52.2882 56.883ZM51.386 47.7862H51.1605V48.1245H51.4424L51.386 47.7862ZM50.9538 53.8194L51.2921 53.9885L51.6867 53.7818L51.5364 53.4623L51.3484 53.1428L51.4424 52.8984V52.6541H51.1793V53.0112V53.3871L50.9538 53.8194ZM50.9538 55.229L51.1041 54.9283L50.8222 55.0974L50.7282 55.4358L50.9538 55.229ZM51.5928 54.3081H51.48V54.5336L51.6116 54.6464L51.5928 54.3081ZM51.3296 45.7563V46.0758V46.3953V46.7148L51.2169 47.0156V47.3351V47.6546H51.5552L51.7619 47.4291V47.1283V46.8088V46.5081V46.1698V45.8503L51.5928 45.5683L51.48 45.2488L51.3109 44.9293L51.2169 45.0421L51.3296 45.418V45.7563ZM49.2058 59.7962L48.8299 59.8902H48.454L48.2284 60.1721H48.7923H49.0554H49.4125L49.7508 60.0218L49.9952 59.7398H49.5065L49.2058 59.7962ZM48.9991 53.763L48.8487 54.0449L49.1494 54.1953V53.9509V53.7066L48.9991 53.763ZM50.6718 51.1505V51.47V51.7895H50.7846V51.4512V51.1129L50.6718 51.1505ZM42.3268 58.3114H42.0261L41.8569 58.5557V58.8565L42.0073 59.1008V59.2324H42.3832L42.4772 58.9316V58.6121L42.3268 58.3114ZM50.653 44.5158L50.7846 44.7977L50.8974 44.5722V44.2903V44.0084L50.653 43.858H50.3899L50.5214 44.1587L50.653 44.5158ZM53.6414 54.7403L53.4535 55.0598L53.2655 55.3794L53.1527 55.7365L52.9272 55.5485L52.7769 55.7929V56.0748L52.8896 56.3755L53.2468 56.15V56.3191L53.3971 55.9808L53.5287 55.6425L53.6414 55.4358L53.7542 55.0598V54.684L53.6414 54.7403ZM51.7619 55.1538L52.0251 55.2666V54.9283V54.6088V54.2705L51.8559 54.59L51.7244 54.9659L51.4988 55.2666L51.7619 55.1538ZM51.0477 58.9128L51.1605 58.6873L50.9349 58.8377L50.7658 59.0632L50.653 59.3263L50.841 59.1196L51.0477 58.9128ZM41.3119 40.4185H41.6314L41.1803 40.2681L41.3119 40.4185ZM50.4275 58.5182L50.5778 58.2362L50.6718 57.9355L50.8222 57.6348L50.9538 57.3528V57.0145V56.7138L51.1229 56.5071L51.2545 56.2439L51.029 56.0748H50.7094L50.5966 56.4131L50.4275 56.695L50.2771 56.9958L49.9952 57.3716L49.826 57.616L49.5817 57.8039L49.3562 58.0107L49.1682 58.255L49.0742 58.5369L49.2434 58.8189H49.5817H49.9012H50.2583L50.4275 58.5182ZM34.2449 39.8546V39.5539L33.9442 39.4412L33.6811 39.5915L33.4931 39.8171V40.1178H33.7938L34.1698 39.9674L34.2825 40.099L34.7524 39.9674L34.4704 39.7419L34.2449 39.8546ZM30.0348 37.1857L29.7717 37.3737L29.5086 37.5053L29.2642 37.7308L28.9259 37.9751L28.738 38.351L29.0387 38.2383L29.283 38.0691H29.5461V38.2195L29.8657 38.351L30.0348 38.6142V38.9337H30.3544H30.655L30.8806 38.7269H31.1813H31.4633L31.8391 38.5766H32.1023H32.3466H32.6661H33.0044H33.2864V38.351V38.1255L33.6247 37.9376V37.5616L33.9442 37.1857H33.8127H33.9066L34.0758 36.7911H33.8314L34.0006 36.6407V36.3776H34.2073H33.8878H33.5871L33.3052 36.4903L33.0232 36.6219V36.7347L32.7413 36.8662L32.4406 36.9978H32.1399L31.9143 36.5655L31.5572 36.7159V36.6219L31.2565 36.7347L30.9934 36.9038L30.8994 36.7911H30.5987L30.3167 36.9414L30.0348 37.1857ZM29.0387 39.5539L28.8507 39.8171V40.1178H29.1139H29.3958L29.5461 39.7043L29.2642 39.3284L29.0387 39.5539ZM38.9437 34.8364H38.5866H38.2295H38.5866H38.9437ZM37.4401 41.753H37.7408L38.0039 41.5462H38.3423V41.377H38.0227H37.6844L37.4025 41.5462L37.0642 41.659L36.7447 41.8469L36.5755 42.1476L36.444 42.486L36.6695 42.5987L36.895 42.7491L37.0078 42.5987V42.298L37.2333 42.0725L37.4401 41.753ZM40.8232 39.8734H40.5413V40.2493H41.1615L41.0111 40.005L40.8232 39.8734ZM52.4386 55.9244V55.6613V55.9244V56.1688V55.9244ZM29.1327 37.2797L29.4522 37.1106L29.7341 36.9038L30.0724 36.7723L30.3919 36.6031L30.5611 36.3776L30.2416 36.5467H30.1476C29.6032 36.8627 29.0761 37.2078 28.5688 37.5804L28.8319 37.4489L29.1327 37.2797ZM51.6867 56.5823L51.3296 56.7702L51.1981 57.0709L51.0101 57.3528L50.9161 57.6536V57.9731L51.0101 58.2738L51.3109 58.1423L51.4988 57.8603L51.5928 57.5408V57.2401H51.4424L51.6492 56.977L51.8559 56.6762L52.0438 56.3567L51.6867 56.5823ZM27.0089 42.8431L27.2908 42.7303L27.5351 42.5235V42.2228L27.2344 42.3356L26.9524 42.486L26.6705 42.6551V42.8995L27.0089 42.8431ZM51.4424 58.8377L51.668 58.4994L51.8559 58.1423L51.6492 58.4806L51.4424 58.8377ZM27.6103 42.937L27.3095 43.1062L27.0464 43.3129L26.8021 43.5385V43.8392H27.1968H27.5915L27.7794 43.5009V43.1438L27.911 42.8431L28.1741 42.5987L28.362 42.298L28.4561 41.9597L28.1929 42.0725L28.1553 42.204V42.486L27.9298 42.7303L27.6103 42.937ZM27.6103 38.351L27.3095 38.633L27.6103 38.351Z" fill="white"/>
<path d="M24.8477 78.6854C24.8477 78.6854 12.8 71.9943 13.7398 61.5255C13.1455 63.8354 13.3714 66.2801 14.3789 68.4421C14.3789 68.4421 8.53359 66.2618 13.5895 57.4845C13.5895 57.4845 20.1114 62.0141 15.469 68.5172C16.632 70.7738 18.4283 72.642 20.6376 73.8926C22.4348 74.9511 24.1613 76.1251 25.8063 77.4073C25.836 77.5566 25.8336 77.7106 25.7991 77.8588C25.7647 78.0071 25.6991 78.1464 25.6066 78.2673C25.5141 78.3883 25.3969 78.4881 25.2628 78.5602C25.1287 78.6323 24.9808 78.675 24.8289 78.6854" fill="white"/>
<path d="M15.6379 71.3928C14.1502 73.1092 12.0527 74.1789 9.78976 74.3754C7.52686 74.5719 5.27642 73.8796 3.51514 72.4453C3.51514 72.4453 9.15366 67.0323 14.7922 70.0771C12.9819 70.0942 11.1954 70.4912 9.54834 71.2424C11.5333 70.7806 13.6033 70.8324 15.5627 71.3928" fill="white"/>
<path d="M18.5892 71.1485C18.3368 70.5595 18.2111 69.9239 18.2205 69.2831C18.2298 68.6423 18.3739 68.0107 18.6434 67.4292C18.9128 66.8478 19.3016 66.3296 19.7844 65.9082C20.2673 65.4869 20.8334 65.1719 21.446 64.9837C21.446 64.9837 22.1227 70.7726 18.5892 71.1485Z" fill="white"/>
<path d="M59.6375 49.1958C59.2656 43.9186 56.9561 38.9651 53.1532 35.2875C51.113 33.3008 48.7235 31.7079 46.105 30.5887C45.8231 31.3969 45.2781 32.2427 45.5036 32.4682C45.9923 33.1824 45.5036 33.5019 45.2404 33.9342C45.2404 34.047 44.5638 33.9342 44.2443 33.9342C41.1403 32.7279 37.7574 32.4284 34.4898 33.0707C31.2221 33.7129 28.2042 35.2704 25.7875 37.5617C23.675 39.4736 22.0437 41.8573 21.0263 44.5188C20.009 47.1803 19.6343 50.0443 19.9329 52.8779C20.2315 55.7115 21.1948 58.4346 22.7445 60.8256C24.2942 63.2166 26.3865 65.208 28.8511 66.6376L29.9789 67.2767C29.7533 67.7277 29.5654 68.4232 29.3774 68.4232C28.1557 68.4232 28.4752 69.5884 27.7798 70.3027C30.6304 71.6576 33.7095 72.4672 36.8579 72.6896V75.0014H39.2072V72.746C42.1003 72.5653 44.9285 71.811 47.5273 70.527C50.1261 69.243 52.4436 67.4549 54.3448 65.2668C56.2461 63.0788 57.6931 60.5344 58.6017 57.7818C59.5103 55.0292 59.8624 52.1233 59.6375 49.2334V49.1958ZM26.389 63.2169C23.5839 60.5477 21.7795 56.9969 21.2771 53.1575C20.7747 49.3182 21.6048 45.4226 23.6286 42.1215C25.6524 38.8204 28.7475 36.3136 32.397 35.0197C36.0465 33.7257 40.0295 33.723 43.6808 35.012C47.332 36.301 50.4305 38.8036 52.4588 42.102C54.4871 45.4003 55.3224 49.2947 54.8253 53.1348C54.3281 56.9748 52.5285 60.5281 49.727 63.2011C46.9256 65.8741 43.2919 67.5051 39.4328 67.8217H38.7938C37.7894 67.862 36.7835 67.8179 35.7865 67.6901C34.8251 67.5614 33.8759 67.354 32.9485 67.0699C32.5162 67.0699 32.0087 66.788 31.5013 66.694V66.5624C30.881 66.2993 30.2608 65.9986 29.6218 65.6791C29.3309 65.5252 29.0486 65.3559 28.776 65.1716C27.902 64.6181 27.0782 63.9892 26.3138 63.2921L26.389 63.2169ZM55.5965 59.5331C53.4264 64.1277 49.5477 67.6932 44.787 69.4697C40.0263 71.2462 34.76 71.0932 30.1104 69.0434C30.3172 68.6299 30.4675 68.2916 30.6931 67.8217C33.4168 68.9787 36.3822 69.4518 39.3306 69.1995C42.2791 68.9473 45.1211 67.9774 47.6086 66.3745C50.9357 64.2705 53.4733 61.1249 54.8259 57.428C56.3325 53.2174 56.2489 48.6014 54.591 44.448C52.9331 40.2946 49.815 36.8898 45.8231 34.874C46.0298 34.4229 46.2554 33.9718 46.4809 33.5207C51.1382 35.7823 54.7068 39.8009 56.402 44.6929C58.0973 49.5848 57.7805 54.9498 55.5214 59.6083" fill="white"/>
<path d="M44.4885 76.8058H31.6139C30.5243 76.8098 29.4783 77.2341 28.6939 77.9905C27.9095 78.7468 27.4474 79.7768 27.4038 80.8655H48.567C48.5338 79.7961 48.0929 78.7799 47.3346 78.0251C46.5763 77.2703 45.5581 76.8341 44.4885 76.8058Z" fill="white"/>
<path d="M42.966 76.0352C42.5029 75.7581 41.9935 75.567 41.4624 75.4713C39.1506 75.4713 36.8576 75.4713 34.5646 75.4713C34.0283 75.589 33.5142 75.7921 33.0422 76.0728L33.155 76.3923H42.8345C42.8345 76.2607 42.9284 76.1479 42.966 76.0352Z" fill="white"/>
</svg>
